<?xml version='1.0' encoding='UTF-8'?>
<svg xmlns="http://www.w3.org/2000/svg" version="1.1" viewBox="100 360 750 260">
<path d="M0 0 C0.80050781 0.556875 1.60101563 1.11375 2.42578125 1.6875 C3.96411018 2.77265387 5.48534472 3.88204015 7 5 C7 4.34 7 3.68 7 3 C7.61746094 2.7525 8.23492187 2.505 8.87109375 2.25 C14.80813925 -1.23597167 16.2801648 -11.75908288 18 -18 C18.33 -18 18.66 -18 19 -18 C19.24234375 -16.89140625 19.4846875 -15.7828125 19.734375 -14.640625 C20.07215594 -13.17690757 20.41073998 -11.71337531 20.75 -10.25 C20.90726563 -9.52039063 21.06453125 -8.79078125 21.2265625 -8.0390625 C22.26865179 -3.6302232 23.20179967 -0.78982856 27 2 C34.34447142 5.43760549 41.95729161 6.68335794 50 7 C50.33 7.99 50.66 8.98 51 10 C50.21496094 10.17015625 49.42992187 10.3403125 48.62109375 10.515625 C42.42847209 11.94410705 37.25489661 13.37996011 32 17 C31.67 17.66 31.34 18.32 31 19 C30.34 19 29.68 19 29 19 C29.51949219 19.85980469 30.03898438 20.71960938 30.57421875 21.60546875 C45.5695328 46.83647976 49.34597007 74.33642947 42.25 102.75 C35.95146408 124.36490187 25.24957034 143.60983151 9.8125 160.01171875 C7.84389679 162.07099988 7.84389679 162.07099988 6 165 C5.34 165 4.68 165 4 165 C3.67 165.99 3.34 166.98 3 168 C0.56262326 170.58115458 -2.2553034 172.75433915 -5 175 C-6.36318359 176.13501953 -6.36318359 176.13501953 -7.75390625 177.29296875 C-20.79479627 187.76898385 -35.37199524 196.04068301 -51 202 C-51.83917969 202.33773437 -52.67835938 202.67546875 -53.54296875 203.0234375 C-65.38952364 207.46844433 -75.39244309 203.58923764 -86.53515625 198.625 C-88.38278423 197.76099181 -90.22515716 196.88566959 -92.0625 196 C-93.04549072 195.52796143 -94.02848145 195.05592285 -95.04125977 194.56958008 C-107.39035185 188.50501829 -120.71338002 181.28482279 -131 172 C-131 171.34 -131 170.68 -131 170 C-131.5775 169.731875 -132.155 169.46375 -132.75 169.1875 C-135.03412048 167.98199197 -136.95431531 166.56864477 -139 165 C-138.02897339 164.90295776 -138.02897339 164.90295776 -137.03833008 164.80395508 C-89.40080889 159.91040846 -49.52963513 142.88254178 -13 112 C-12.27167969 111.39542969 -11.54335938 110.79085937 -10.79296875 110.16796875 C-6.03588748 106.1385481 -2.00388144 101.76691622 2 97 C2.7734375 96.13761719 3.546875 95.27523437 4.34375 94.38671875 C18.71198511 78.00072222 29.7897682 56.5244928 29.37109375 34.359375 C28.82672368 29.43139335 27.1717177 25.40605373 25 21 C24.96559814 21.5576001 24.93119629 22.1152002 24.89575195 22.68969727 C23.30871879 46.64282573 16.34735345 66.97817806 0 85 C-1.11375 86.27423828 -1.11375 86.27423828 -2.25 87.57421875 C-17.89353094 105.3089856 -36.39725247 120.34325052 -57 132 C-57.75522949 132.42812988 -58.51045898 132.85625977 -59.28857422 133.29736328 C-83.56729142 146.89668398 -119.21117597 162.30474178 -147.5625 154.8125 C-151.90124419 153.29898458 -154.68726744 151.15113585 -158 148 C-159.485 147.01 -159.485 147.01 -161 146 C-162.10546875 144.29296875 -162.10546875 144.29296875 -163.1875 142.1875 C-165.98329374 136.88839556 -169.23640255 131.9202383 -172.5234375 126.91796875 C-174 124 -174 124 -173.7265625 121.61328125 C-173.36691406 120.81470703 -173.36691406 120.81470703 -173 120 C-172.54625 120.680625 -172.0925 121.36125 -171.625 122.0625 C-161.08613407 133.85599283 -146.43361184 136.99330131 -131.25 138.22265625 C-89.19346166 139.59666247 -46.51889805 116.85396803 -16.328125 89.2265625 C-8.4641908 81.71215118 -8.4641908 81.71215118 -4 72 C-4.08738117 68.42829473 -4.38009738 65.20617404 -6 62 C-10.68140941 59.05483129 -14.8369795 58.53529756 -20.2421875 58.48828125 C-21.39474533 58.46135445 -21.39474533 58.46135445 -22.57058716 58.43388367 C-25.00533695 58.38005042 -27.4398938 58.34597308 -29.875 58.3125 C-31.53388086 58.27930295 -33.19273635 58.24481109 -34.8515625 58.20898438 C-38.90090182 58.12434009 -42.95018661 58.05740143 -47 58 C-47.02505615 56.86981445 -47.0501123 55.73962891 -47.07592773 54.57519531 C-47.17016956 50.37814183 -47.27034926 46.18124737 -47.37231445 41.984375 C-47.41559986 40.16865766 -47.45727944 38.35290129 -47.49731445 36.53710938 C-47.55517202 33.92566167 -47.61882172 31.31440923 -47.68359375 28.703125 C-47.70866249 27.48728729 -47.70866249 27.48728729 -47.73423767 26.24688721 C-47.82771396 22.68275277 -48.04624584 19.43312065 -49 16 C-61.47253454 12.30443421 -82.00038303 11.43247894 -93.85546875 17.44921875 C-96.10473361 18.82386395 -96.10473361 18.82386395 -97 21 C-97.08675538 23.69893181 -97.11557897 26.37169231 -97.09765625 29.0703125 C-97.0962413 29.86654022 -97.09482635 30.66276794 -97.09336853 31.48312378 C-97.08776345 34.0304538 -97.07521014 36.57769647 -97.0625 39.125 C-97.05748565 40.85025915 -97.05292263 42.57551967 -97.04882812 44.30078125 C-97.03779237 48.53388791 -97.02052436 52.76692914 -97 57 C-100.12929178 58.83069903 -102.37643146 59.23931181 -105.984375 59.1953125 C-106.82709961 59.19031738 -107.66982422 59.18532227 -108.53808594 59.18017578 C-109.59801758 59.16196777 -110.65794922 59.14375977 -111.75 59.125 C-115.1325 59.08375 -118.515 59.0425 -122 59 C-122 65.93 -122 72.86 -122 80 C-118.64713542 79.70703125 -115.29427083 79.4140625 -111.94140625 79.12109375 C-110.97074219 79.08113281 -110.00007813 79.04117188 -109 79 C-108 80 -108 80 -107.88647461 81.85766602 C-107.89432983 83.04380493 -107.89432983 83.04380493 -107.90234375 84.25390625 C-107.90717773 85.53491211 -107.90717773 85.53491211 -107.91210938 86.84179688 C-107.92467773 88.18854492 -107.92467773 88.18854492 -107.9375 89.5625 C-107.94201172 90.46419922 -107.94652344 91.36589844 -107.95117188 92.29492188 C-107.96299775 94.53001314 -107.9794778 96.76497437 -108 99 C-111.05269846 100.52634923 -113.75845689 99.83794444 -117.125 99.5625 C-118.40632813 99.46066406 -119.68765625 99.35882813 -121.0078125 99.25390625 C-122.48894531 99.12822266 -122.48894531 99.12822266 -124 99 C-124 95.7 -124 92.4 -124 89 C-130.27 89 -136.54 89 -143 89 C-143 95.6 -143 102.2 -143 109 C-128.01554308 110.33195173 -113.02976394 110.094802 -98 110 C-96.4211287 113.6820243 -95.90791218 115.17769264 -97 119 C-96.92840288 120.35483787 -96.84385433 121.70902182 -96.75 123.0625 C-97 127 -97 127 -98.9375 128.875 C-114.64749999 134.64602041 -136.53977166 134.91531619 -152.0390625 128.484375 C-153.50472656 127.74960937 -153.50472656 127.74960937 -155 127 C-155.95648438 126.53078125 -156.91296875 126.0615625 -157.8984375 125.578125 C-164.19478179 122.14375539 -169.3525824 118.02062057 -172.1171875 111.2734375 C-173.12068683 107.55249751 -173.44690222 103.95410224 -173.625 100.125 C-173.66367188 99.43664062 -173.70234375 98.74828125 -173.7421875 98.0390625 C-173.83548166 96.35976754 -173.91878238 94.67992233 -174 93 C-169.68413875 90.83794331 -166.44756775 90.93013386 -161.6875 91.375 C-160.43324219 91.48585938 -159.17898437 91.59671875 -157.88671875 91.7109375 C-156.93410156 91.80632812 -155.98148438 91.90171875 -155 92 C-155.33 89.36 -155.66 86.72 -156 84 C-163.92 83.67 -171.84 83.34 -180 83 C-180 75.08 -180 67.16 -180 59 C-175.99710045 58.33285008 -172.80214613 57.87247441 -168.85546875 57.8671875 C-167.93185547 57.86589844 -167.00824219 57.86460937 -166.05664062 57.86328125 C-164.63641602 57.86908203 -164.63641602 57.86908203 -163.1875 57.875 C-162.22134766 57.87113281 -161.25519531 57.86726563 -160.25976562 57.86328125 C-159.34259766 57.86457031 -158.42542969 57.86585938 -157.48046875 57.8671875 C-156.64410889 57.86831543 -155.80774902 57.86944336 -154.94604492 57.87060547 C-153 58 -153 58 -152 59 C-151.91330568 60.4887186 -151.89296506 61.981445 -151.90234375 63.47265625 C-151.90556641 64.37177734 -151.90878906 65.27089844 -151.91210938 66.19726562 C-151.92048828 67.14279297 -151.92886719 68.08832031 -151.9375 69.0625 C-151.94201172 70.01189453 -151.94652344 70.96128906 -151.95117188 71.93945312 C-151.96299872 74.29299531 -151.98093479 76.64650532 -152 79 C-146.06 78.67 -140.12 78.34 -134 78 C-133.835 76.040625 -133.67 74.08125 -133.5 72.0625 C-133.4071875 70.96035156 -133.314375 69.85820312 -133.21875 68.72265625 C-132.96994028 64.48844798 -133 60.24151223 -133 56 C-139.6 56 -146.2 56 -153 56 C-153 49.4 -153 42.8 -153 36 C-155.97 36.495 -155.97 36.495 -159 37 C-162.85053204 37.22927862 -166.3006171 37.23312763 -170 36 C-170 29.73 -170 23.46 -170 17 C-164.39 17 -158.78 17 -153 17 C-152.20810042 20.1675983 -151.8641351 22.32744777 -151.875 25.5 C-151.87113281 26.62921875 -151.87113281 26.62921875 -151.8671875 27.78125 C-152 30 -152 30 -153 34 C-143.1 33.67 -133.2 33.34 -123 33 C-123.33 31.35 -123.66 29.7 -124 28 C-129.94 27.67 -135.88 27.34 -142 27 C-143.03990234 22.84039065 -143.14764252 19.05797184 -143.125 14.8125 C-143.13080078 13.70745117 -143.13080078 13.70745117 -143.13671875 12.58007812 C-143.12668491 7.12668491 -143.12668491 7.12668491 -142 6 C-140.31391034 5.92794489 -138.62499341 5.91613932 -136.9375 5.9375 C-136.01839844 5.94652344 -135.09929687 5.95554687 -134.15234375 5.96484375 C-133.44207031 5.97644531 -132.73179687 5.98804688 -132 6 C-132 5.34 -132 4.68 -132 4 C-131.360625 4.185625 -130.72125 4.37125 -130.0625 4.5625 C-129.0415625 4.7790625 -129.0415625 4.7790625 -128 5 C-127.505 4.505 -127.505 4.505 -127 4 C-126.01 4.66 -125.02 5.32 -124 6 C-124 7.32 -124 8.64 -124 10 C-123.40574219 9.55269531 -122.81148437 9.10539062 -122.19921875 8.64453125 C-107.2748884 -2.24117783 -89.74270782 -6.82661669 -72 -11 C-88.27011395 -11.65664137 -103.48405354 -9.26258198 -118.875 -3.98828125 C-122 -3 -122 -3 -125 -3 C-125 -3.66 -125 -4.32 -125 -5 C-85.23558208 -23.12967382 -36.85232662 -25.93488445 0 0 Z M-69 -12 C-65 -11 -65 -11 -65 -11 Z M-8 9 C-8 9.33 -8 9.66 -8 10 C-7.23816406 10.14695312 -6.47632813 10.29390625 -5.69140625 10.4453125 C1.75397154 12.06266048 9.697666 14.06284718 14.18359375 20.76953125 C15.66495166 24.02284838 16.46599072 27.47553877 17 31 C19.24324836 29.18806994 19.24324836 29.18806994 19.1953125 26.6171875 C19.17210937 25.71226562 19.14890625 24.80734375 19.125 23.875 C19.10695313 22.96492188 19.08890625 22.05484375 19.0703125 21.1171875 C19.04710937 20.41851562 19.02390625 19.71984375 19 19 C19.7734375 19.06960938 20.546875 19.13921875 21.34375 19.2109375 C24.0289202 19.29320501 24.0289202 19.29320501 25.40625 17.5390625 C25.94765625 16.59160156 25.94765625 16.59160156 26.5 15.625 C28.58176215 12.35365948 30.12715884 10.99587344 34 10 C34 9.34 34 8.68 34 8 C28.83001989 6.85054224 23.90154482 6.80891112 18.625 6.8125 C17.65288574 6.81185547 16.68077148 6.81121094 15.67919922 6.81054688 C7.64314004 6.86886563 -0.08531541 7.61924506 -8 9 Z " fill="#0D98E0" transform="translate(302,397)" />
<path d="M0 0 C1.98 0.495 1.98 0.495 4 1 C4.99 4.465 4.99 4.465 6 8 C6.66 8 7.32 8 8 8 C8 18.89 8 29.78 8 41 C7.34 41 6.68 41 6 41 C6.14308594 42.06927734 6.14308594 42.06927734 6.2890625 43.16015625 C6.97119249 49.05344207 7.10358772 53.43167955 5 59 C4.34 59 3.68 59 3 59 C2.87044922 60.74023438 2.87044922 60.74023438 2.73828125 62.515625 C2.15241794 67.17380265 0.47161762 70.69579487 -1.8125 74.75 C-2.15603516 75.39582031 -2.49957031 76.04164063 -2.85351562 76.70703125 C-4.85112194 80.3574413 -6.97284392 83.16647864 -10 86 C-10.7425 87.3303125 -10.7425 87.3303125 -11.5 88.6875 C-13 91 -13 91 -15.1875 91.8125 C-15.785625 91.874375 -16.38375 91.93625 -17 92 C-17 92.66 -17 93.32 -17 94 C-17.61875 94.0825 -18.2375 94.165 -18.875 94.25 C-19.57625 94.4975 -20.2775 94.745 -21 95 C-21.28875 95.6290625 -21.5775 96.258125 -21.875 96.90625 C-23.26897028 99.50058358 -24.47375888 100.0526653 -27.125 101.25 C-28.21167969 101.75273438 -28.21167969 101.75273438 -29.3203125 102.265625 C-29.87460937 102.50796875 -30.42890625 102.7503125 -31 103 C-26.08813279 101.6736501 -22.98026854 99.6660829 -19.125 96.375 C-18.15820312 95.55773437 -17.19140625 94.74046875 -16.1953125 93.8984375 C-15.47085938 93.27195312 -14.74640625 92.64546875 -14 92 C-14 97.69310719 -19.39116413 101.85160779 -23 106 C-23.46019531 106.53544434 -23.92039062 107.07088867 -24.39453125 107.62255859 C-30.71652248 114.93072821 -37.25622361 121.11231052 -45.08984375 126.78125 C-47.99330871 128.99489846 -50.44099335 131.40305091 -53 134 C-54.31175986 135.02813611 -55.6369893 136.04084432 -57 137 C-48.59632057 131.76889119 -40.5654766 126.41679167 -33 120 C-32.29230469 119.41476562 -31.58460938 118.82953125 -30.85546875 118.2265625 C-26.07562976 114.1870045 -21.95759886 109.84157074 -18 105 C-17.2265625 104.07574219 -16.453125 103.15148437 -15.65625 102.19921875 C-5.39750855 89.6414147 1.7147809 75.63936262 6 60 C6.46019531 58.40865234 6.46019531 58.40865234 6.9296875 56.78515625 C10.24630403 43.25020214 9.75652606 28.86187292 10 15 C10.66 15 11.32 15 12 15 C18.43224933 47.45196979 11.96756612 79.06395643 -6.4140625 106.6875 C-10.89480401 113.21461247 -15.75490932 119.23959115 -21.1875 125.01171875 C-23.15610321 127.07099988 -23.15610321 127.07099988 -25 130 C-25.66 130 -26.32 130 -27 130 C-27.33 130.99 -27.66 131.98 -28 133 C-30.43737674 135.58115458 -33.2553034 137.75433915 -36 140 C-37.36318359 141.13501953 -37.36318359 141.13501953 -38.75390625 142.29296875 C-51.79479627 152.76898385 -66.37199524 161.04068301 -82 167 C-82.83917969 167.33773437 -83.67835938 167.67546875 -84.54296875 168.0234375 C-96.38952364 172.46844433 -106.39244309 168.58923764 -117.53515625 163.625 C-119.38278423 162.76099181 -121.22515716 161.88566959 -123.0625 161 C-124.53698608 160.29194214 -124.53698608 160.29194214 -126.04125977 159.56958008 C-138.39035185 153.50501829 -151.71338002 146.28482279 -162 137 C-162 136.34 -162 135.68 -162 135 C-162.5775 134.731875 -163.155 134.46375 -163.75 134.1875 C-166.03412048 132.98199197 -167.95431531 131.56864477 -170 130 C-169.02897339 129.90295776 -169.02897339 129.90295776 -168.03833008 129.80395508 C-120.40080889 124.91040846 -80.52963513 107.88254178 -44 77 C-42.90751953 76.09314453 -42.90751953 76.09314453 -41.79296875 75.16796875 C-37.03588748 71.1385481 -33.00388144 66.76691622 -29 62 C-28.2265625 61.13761719 -27.453125 60.27523437 -26.65625 59.38671875 C-16.93410712 48.29927494 -10.19937338 35.78343689 -5 22 C-4.68160156 21.16984375 -4.36320313 20.3396875 -4.03515625 19.484375 C-3.34350735 17.66122674 -2.66920406 15.83150586 -2 14 C-1.67 14 -1.34 14 -1 14 C-0.34 11.03 0.32 8.06 1 5 C0.67 5 0.34 5 0 5 C0 3.35 0 1.7 0 0 Z " fill="#0054B1" transform="translate(333,432)" />
<path d="M0 0 C2.51083114 1.25541557 2.87125446 2.50063488 4 5 C3.401875 5.556875 2.80375 6.11375 2.1875 6.6875 C-0.04550266 8.85118022 -0.04550266 8.85118022 -1.25390625 11.296875 C-3.4162785 14.6444401 -6.10071848 17.02671404 -9.125 19.5625 C-10.04381958 20.33859619 -10.04381958 20.33859619 -10.98120117 21.13037109 C-43.1273699 47.84014443 -86.09858206 70.46817781 -129 68 C-135.72274211 66.88247612 -140.096004 64.66477668 -145 60 C-145.99 59.34 -146.98 58.68 -148 58 C-149.10546875 56.29296875 -149.10546875 56.29296875 -150.1875 54.1875 C-152.98329374 48.88839556 -156.23640255 43.9202383 -159.5234375 38.91796875 C-161 36 -161 36 -160.7265625 33.61328125 C-160.48679688 33.08089844 -160.24703125 32.54851563 -160 32 C-159.54625 32.680625 -159.0925 33.36125 -158.625 34.0625 C-148.08613407 45.85599283 -133.43361184 48.99330131 -118.25 50.22265625 C-80.88008789 51.44354827 -41.70171902 33.10442555 -13.32421875 9.890625 C-9.02575071 6.39405604 -4.61017821 3.07345214 0 0 Z " fill="#02CAFA" transform="translate(289,485)" />
<path d="M0 0 C0.66 0 1.32 0 2 0 C8.43224933 32.45196979 1.96756612 64.06395643 -16.4140625 91.6875 C-20.89480401 98.21461247 -25.75490932 104.23959115 -31.1875 110.01171875 C-33.15610321 112.07099988 -33.15610321 112.07099988 -35 115 C-35.66 115 -36.32 115 -37 115 C-37.33 115.99 -37.66 116.98 -38 118 C-40.43737674 120.58115458 -43.2553034 122.75433915 -46 125 C-47.36318359 126.13501953 -47.36318359 126.13501953 -48.75390625 127.29296875 C-61.79479627 137.76898385 -76.37199524 146.04068301 -92 152 C-92.83917969 152.33773437 -93.67835938 152.67546875 -94.54296875 153.0234375 C-106.38952364 157.46844433 -116.39244309 153.58923764 -127.53515625 148.625 C-129.38278423 147.76099181 -131.22515716 146.88566959 -133.0625 146 C-134.53698608 145.29194214 -134.53698608 145.29194214 -136.04125977 144.56958008 C-148.39035185 138.50501829 -161.71338002 131.28482279 -172 122 C-172 121.34 -172 120.68 -172 120 C-172.5775 119.731875 -173.155 119.46375 -173.75 119.1875 C-176.0325868 117.98280141 -177.9737942 116.59201885 -180 115 C-171.98340366 113.87486367 -164.07861415 113.90420616 -156 114 C-159.47035782 116.31357188 -161.90752784 116.48844098 -166 117 C-167.485 117.495 -167.485 117.495 -169 118 C-159.25786127 130.38286497 -144.83087168 136.1754239 -131 143 C-131 143.66 -131 144.32 -131 145 C-129.4221875 145.185625 -129.4221875 145.185625 -127.8125 145.375 C-123.30670043 146.11365567 -119.9825599 147.49869393 -115.9375 149.5625 C-111.04087075 151.95872283 -106.46994782 152.65902986 -101 152 C-99.32260138 151.01810813 -97.65532623 150.01866229 -96 149 C-92.1875 148.8125 -92.1875 148.8125 -89 149 C-89 148.34 -89 147.68 -89 147 C-85.04 146.01 -85.04 146.01 -81 145 C-81 144.34 -81 143.68 -81 143 C-79.35 143 -77.7 143 -76 143 C-76 142.34 -76 141.68 -76 141 C-75.01 140.67 -74.02 140.34 -73 140 C-72.67 139.34 -72.34 138.68 -72 138 C-69.6748281 136.92684374 -67.37828878 135.93629474 -65 135 C-63.5459375 134.4121875 -63.5459375 134.4121875 -62.0625 133.8125 C-61.381875 133.544375 -60.70125 133.27625 -60 133 C-60 132.34 -60 131.68 -60 131 C-58.37824382 129.87013678 -56.69953157 128.82159687 -55 127.8125 C-48.48783818 123.77916107 -42.46895361 119.95266872 -39 113 C-36.875 112.25 -36.875 112.25 -35 112 C-35 111.01 -35 110.02 -35 109 C-33.34804071 107.61774835 -31.69282047 106.23916507 -30.01953125 104.8828125 C-25.69469233 100.85075764 -21.87401789 95.62205367 -20 90 C-19.34 90 -18.68 90 -18 90 C-17.01 87.03 -16.02 84.06 -15 81 C-18.89962482 82.94981241 -19.92148344 83.84127202 -22.375 87.1875 C-23.28572266 88.39599609 -23.28572266 88.39599609 -24.21484375 89.62890625 C-24.80394531 90.41136719 -25.39304687 91.19382812 -26 92 C-29.56867669 96.51414427 -33.39310869 100.37617487 -37.78125 104.09765625 C-41.16968632 107.00288246 -44.42708107 110.05116895 -47.703125 113.08203125 C-50 115 -50 115 -51.91796875 115.94458008 C-54.06756758 117.03425125 -55.73733146 118.29295987 -57.609375 119.8046875 C-62.18354827 123.28926815 -67.04594675 125.71742247 -72.25 128.125 C-73.17659424 128.55804443 -74.10318848 128.99108887 -75.05786133 129.43725586 C-84.18034884 133.64044977 -92.81696413 137.24235426 -102.94140625 137.82421875 C-105.19845858 137.93594853 -105.19845858 137.93594853 -108 139 C-111.07928776 139.22664228 -114.16321224 139.18515798 -117.25 139.1875 C-118.08402344 139.19974609 -118.91804688 139.21199219 -119.77734375 139.22460938 C-124.91507683 139.23670765 -129.1345282 138.66346536 -134 137 C-134 136.67 -134 136.34 -134 136 C-132.65421875 136.01740234 -132.65421875 136.01740234 -131.28125 136.03515625 C-121.80697747 136.10366855 -112.44594783 135.71153974 -103 135 C-102.16984375 134.96261719 -101.3396875 134.92523437 -100.484375 134.88671875 C-75.44964509 133.26409737 -47.50184856 112.14125425 -31.25 94.0625 C-30.15395286 92.718603 -29.07184969 91.36327426 -28 90 C-27.23429688 89.0821875 -26.46859375 88.164375 -25.6796875 87.21875 C-15.40009976 74.66806742 -8.28672449 60.6448567 -4 45 C-3.53980469 43.40865234 -3.53980469 43.40865234 -3.0703125 41.78515625 C0.24630403 28.25020214 -0.24347394 13.86187292 0 0 Z " fill="#012B85" transform="translate(343,447)" />
<path d="M0 0 C-0.66 0.99 -1.32 1.98 -2 3 C-2.66 3 -3.32 3 -4 3 C-3.48050781 3.85980469 -2.96101563 4.71960938 -2.42578125 5.60546875 C-1.72083719 6.79917402 -1.01644038 7.99320258 -0.3125 9.1875 C0.02716797 9.74630859 0.36683594 10.30511719 0.71679688 10.88085938 C7.62395517 22.69403664 9.78135481 33.15857795 9.0625 46.625 C8.99815811 48.14037522 8.93395025 49.65575614 8.86987305 51.17114258 C7.54651781 78.96721241 -1.27057433 104.05219904 -20 125 C-20.79277344 125.92425781 -21.58554687 126.84851563 -22.40234375 127.80078125 C-30.10737913 136.60131929 -38.90821859 143.56332338 -48.3125 150.4375 C-49.17439941 151.07570679 -49.17439941 151.07570679 -50.05371094 151.72680664 C-53.5716995 154.24701207 -56.83173078 155.84600111 -61 157 C-60 156 -59 155 -58 154 C-57.30003906 153.25878906 -56.60007812 152.51757812 -55.87890625 151.75390625 C-51.90428227 147.95185753 -47.51502672 144.8463614 -43.05859375 141.63671875 C-32.10307697 133.60267311 -23.67370138 123.13924394 -16 112 C-16.74765625 112.62648438 -17.4953125 113.25296875 -18.265625 113.8984375 C-19.25046875 114.71570313 -20.2353125 115.53296875 -21.25 116.375 C-22.22453125 117.18710937 -23.1990625 117.99921875 -24.203125 118.8359375 C-27.99340073 121.76863687 -30.42547497 123.2858175 -35.25 123.125 C-36.4875 123.08375 -37.725 123.0425 -39 123 C-39 122.67 -39 122.34 -39 122 C-37.824375 121.7525 -36.64875 121.505 -35.4375 121.25 C-29.70849278 119.8177482 -25.10331392 117.31927781 -21 113 C-20.34 113 -19.68 113 -19 113 C-19 112.34 -19 111.68 -19 111 C-18.360625 110.896875 -17.72125 110.79375 -17.0625 110.6875 C-16.381875 110.460625 -15.70125 110.23375 -15 110 C-14.505 108.515 -14.505 108.515 -14 107 C-12.79869392 105.35429669 -11.5645699 103.73241926 -10.3125 102.125 C-5.00627357 94.94823332 -0.43070789 86.91314573 1 78 C1.66 78 2.32 78 3 78 C3.16987681 76.12528812 3.33574776 74.25021305 3.5 72.375 C3.5928125 71.33085937 3.685625 70.28671875 3.78125 69.2109375 C3.99124355 66.12853212 4.03709727 63.08834771 4 60 C4.66 60 5.32 60 6 60 C5.96447021 59.28457031 5.92894043 58.56914062 5.89233398 57.83203125 C5.73362204 54.55498739 5.58548281 51.27754519 5.4375 48 C5.35338867 46.31197266 5.35338867 46.31197266 5.26757812 44.58984375 C5.00362615 38.57173883 5.01604068 32.94748744 6 27 C5.34 27 4.68 27 4 27 C3.01 23.535 3.01 23.535 2 20 C1.34 20 0.68 20 0 20 C0 20.99 0 21.98 0 23 C-0.30978688 25.06616782 -0.6457613 27.12848754 -1 29.1875 C-1.2784375 30.81751953 -1.2784375 30.81751953 -1.5625 32.48046875 C-1.706875 33.31191406 -1.85125 34.14335937 -2 35 C-4 33 -4 33 -4.0546875 29.21875 C-3.99832752 27.64570267 -3.93822759 26.07278626 -3.875 24.5 C-3.69908288 17.12467494 -4.52196605 11.61100311 -8 5 C-8.03440186 5.5576001 -8.06880371 6.1152002 -8.10424805 6.68969727 C-9.69180087 30.650669 -16.65814402 50.96760719 -33 69 C-33.78890625 69.9075 -34.5778125 70.815 -35.390625 71.75 C-39.04216652 75.9093718 -42.59800151 79.62154311 -47 83 C-45.62845496 80.04590299 -44.01136276 77.55991624 -42 75 C-45.6182044 73.73933398 -45.6182044 73.73933398 -49 75 C-47.60120336 71.86140655 -45.91835015 69.67507511 -43.5625 67.1875 C-39.84803212 62.96792665 -36.91819654 59.34371644 -37.0625 53.4453125 C-37.58640346 49.58842255 -37.58640346 49.58842255 -39 46 C-43.68136807 43.05485729 -47.83592647 42.53484034 -53.2421875 42.48828125 C-54.26517944 42.46332581 -54.26517944 42.46332581 -55.30883789 42.43786621 C-57.83058561 42.38049638 -60.3528485 42.34792154 -62.875 42.3125 C-68.52625 42.209375 -74.1775 42.10625 -80 42 C-79.67 30.12 -79.34 18.24 -79 6 C-78.67 6 -78.34 6 -78 6 C-77.39534572 17.33887596 -76.81033906 28.64141683 -77 40 C-76.20980469 39.84015625 -75.41960937 39.6803125 -74.60546875 39.515625 C-63.55770866 37.93566364 -47.83717915 36.64228239 -38.234375 43.20703125 C-36.8125 44.5 -36.8125 44.5 -35 47 C-35 47.99 -35 48.98 -35 50 C-34.34 50.66 -33.68 51.32 -33 52 C-33.26394769 56.75105849 -34.07222664 59.3402833 -37 63 C-37.34820041 64.66362417 -37.68404492 66.32995171 -38 68 C-38.99 68.495 -38.99 68.495 -40 69 C-40 69.66 -40 70.32 -40 71 C-35.48864333 68.80528594 -33.93726652 66.58826282 -32 62 C-31.01 62 -30.02 62 -29 62 C-28.731875 60.906875 -28.46375 59.81375 -28.1875 58.6875 C-27 55 -27 55 -25.5625 53.59375 C-23.54495191 51.53585095 -22.82414763 49.49859889 -21.8125 46.8125 C-21.46832031 45.91144531 -21.12414062 45.01039063 -20.76953125 44.08203125 C-20.51558594 43.39496094 -20.26164062 42.70789063 -20 42 C-19.34 42 -18.68 42 -18 42 C-16.40837921 36.42932723 -15.79325056 31.78898419 -16 26 C-16.33 26 -16.66 26 -17 26 C-17.22142255 24.04310341 -17.4267568 22.08438048 -17.625 20.125 C-17.74101562 19.03445313 -17.85703125 17.94390625 -17.9765625 16.8203125 C-17.98816406 15.42425781 -17.98816406 15.42425781 -18 14 C-17.34 13.34 -16.68 12.68 -16 12 C-15.67 12 -15.34 12 -15 12 C-14.67 9.03 -14.34 6.06 -14 3 C-12.824375 2.814375 -12.824375 2.814375 -11.625 2.625 C-8.85942178 2.20882007 -8.85942178 2.20882007 -7 0 C-2.48387097 -1.24193548 -2.48387097 -1.24193548 0 0 Z " fill="#0453B4" transform="translate(335,413)" />
<path d="M0 0 C0.33 0 0.66 0 1 0 C1.05797565 3.93743833 1.09358789 7.87476719 1.125 11.8125 C1.14175781 12.93205078 1.15851563 14.05160156 1.17578125 15.20507812 C1.18544922 16.81479492 1.18544922 16.81479492 1.1953125 18.45703125 C1.21102295 19.9416687 1.21102295 19.9416687 1.22705078 21.45629883 C1 24 1 24 -1 27 C-4.59275611 28.19758537 -7.88469817 28.16217824 -11.625 28.16796875 C-12.36830566 28.17129715 -13.11161133 28.17462555 -13.87744141 28.17805481 C-15.44758486 28.18311294 -17.01773903 28.18546348 -18.58789062 28.18530273 C-20.99106483 28.18749186 -23.39378183 28.20566607 -25.796875 28.22460938 C-27.3229151 28.22754299 -28.84895737 28.229528 -30.375 28.23046875 C-31.09381348 28.23765427 -31.81262695 28.24483978 -32.55322266 28.25224304 C-36.26080276 28.23523809 -37.83033939 28.11310708 -41 26 C-40.83984375 23.6953125 -40.83984375 23.6953125 -40 21 C-37.62890625 19.3046875 -37.62890625 19.3046875 -34.5625 17.875 C-33.47324219 17.36710938 -32.38398438 16.85921875 -31.26171875 16.3359375 C-27.70333575 14.87849201 -24.15876387 13.84578801 -20.453125 12.84765625 C-16.71927311 11.55745584 -13.54134108 9.52401798 -10.2265625 7.40234375 C-8 6 -8 6 -5.84765625 4.94921875 C-3.43846297 3.7115148 -1.87055861 1.93506063 0 0 Z " fill="#009BEF" transform="translate(256,536)" />
<path d="M0 0 C5.61 0 11.22 0 17 0 C17.79189958 3.1675983 18.1358649 5.32744777 18.125 8.5 C18.12886719 9.62921875 18.12886719 9.62921875 18.1328125 10.78125 C18 13 18 13 17 17 C26.9 16.67 36.8 16.34 47 16 C46.505 13.03 46.505 13.03 46 10 C46.66 10 47.32 10 48 10 C48 11.65 48 13.3 48 15 C48.66 15.33 49.32 15.66 50 16 C47.27371444 18.72628556 44.67721775 18.63799411 41 19 C40.03707031 19.10441406 39.07414062 19.20882813 38.08203125 19.31640625 C32.80422267 19.83435268 28.23058434 20.07294038 23 19 C22.01 19.33 21.02 19.66 20 20 C20.185625 20.78375 20.37125 21.5675 20.5625 22.375 C21.12614779 27.04522451 20.56881862 31.35318945 20 36 C20 36.33 20 36.66 20 37 C22.31 37 24.62 37 27 37 C27.33 36.34 27.66 35.68 28 35 C28 35.66 28 36.32 28 37 C31.3 37 34.6 37 38 37 C39.99544337 41.11560195 40.26247139 44.45049584 40 49 C39.67 49.33 39.34 49.66 39 50 C38.76636119 51.84891946 38.58696365 53.70488031 38.4375 55.5625 C38.35371094 56.57441406 38.26992187 57.58632813 38.18359375 58.62890625 C38.12300781 59.41136719 38.06242187 60.19382812 38 61 C37.67 61 37.34 61 37 61 C37 53.74 37 46.48 37 39 C30.4 39 23.8 39 17 39 C17 32.4 17 25.8 17 19 C15.02 19.33 13.04 19.66 11 20 C7.14946796 20.22927862 3.6993829 20.23312763 0 19 C0 12.73 0 6.46 0 0 Z " fill="#29E4FE" transform="translate(132,414)" />
<path d="M0 0 C0.33 0.99 0.66 1.98 1 3 C-0.20799137 5.16406494 -1.42928585 7.06635473 -2.875 9.0625 C-3.48323608 9.92270752 -3.48323608 9.92270752 -4.10375977 10.80029297 C-7.4773634 15.48083495 -11.19585955 19.77585089 -15.15234375 23.9765625 C-17.15188369 26.06377289 -17.15188369 26.06377289 -19 29 C-19.66 29 -20.32 29 -21 29 C-21.33 29.99 -21.66 30.98 -22 32 C-24.43737674 34.58115458 -27.2553034 36.75433915 -30 39 C-30.90878906 39.75667969 -31.81757813 40.51335938 -32.75390625 41.29296875 C-45.79479627 51.76898385 -60.37199524 60.04068301 -76 66 C-76.83917969 66.33773437 -77.67835938 66.67546875 -78.54296875 67.0234375 C-90.38952364 71.46844433 -100.39244309 67.58923764 -111.53515625 62.625 C-113.38278423 61.76099181 -115.22515716 60.88566959 -117.0625 60 C-118.04549072 59.52796143 -119.02848145 59.05592285 -120.04125977 58.56958008 C-132.39035185 52.50501829 -145.71338002 45.28482279 -156 36 C-156 35.34 -156 34.68 -156 34 C-156.5775 33.731875 -157.155 33.46375 -157.75 33.1875 C-160.0325868 31.98280141 -161.9737942 30.59201885 -164 29 C-155.98340366 27.87486367 -148.07861415 27.90420616 -140 28 C-143.47035782 30.31357188 -145.90752784 30.48844098 -150 31 C-150.99 31.33 -151.98 31.66 -153 32 C-143.25786127 44.38286497 -128.83087168 50.1754239 -115 57 C-115 57.66 -115 58.32 -115 59 C-113.4221875 59.185625 -113.4221875 59.185625 -111.8125 59.375 C-107.30670043 60.11365567 -103.9825599 61.49869393 -99.9375 63.5625 C-95.04087075 65.95872283 -90.46994782 66.65902986 -85 66 C-83.32260138 65.01810813 -81.65532623 64.01866229 -80 63 C-76.1875 62.8125 -76.1875 62.8125 -73 63 C-73 62.34 -73 61.68 -73 61 C-70.36 60.34 -67.72 59.68 -65 59 C-65 58.34 -65 57.68 -65 57 C-63.35 57 -61.7 57 -60 57 C-60 56.34 -60 55.68 -60 55 C-59.01 54.67 -58.02 54.34 -57 54 C-56.505 53.01 -56.505 53.01 -56 52 C-53.6748281 50.92684374 -51.37828878 49.93629474 -49 49 C-47.5459375 48.4121875 -47.5459375 48.4121875 -46.0625 47.8125 C-45.381875 47.544375 -44.70125 47.27625 -44 47 C-44 46.34 -44 45.68 -44 45 C-42.37824382 43.87013678 -40.69953157 42.82159687 -39 41.8125 C-32.48783818 37.77916107 -26.46895361 33.95266872 -23 27 C-20.875 26.25 -20.875 26.25 -19 26 C-19 25.01 -19 24.02 -19 23 C-17.34804071 21.61774835 -15.69282047 20.23916507 -14.01953125 18.8828125 C-9.69469233 14.85075764 -5.87401789 9.62205367 -4 4 C-3.34 4 -2.68 4 -2 4 C-1.34 2.68 -0.68 1.36 0 0 Z " fill="#042372" transform="translate(327,533)" />
<path d="M0 0 C0.33 0 0.66 0 1 0 C6.68807701 27.60798352 -2.00249616 55.88981134 -17 79 C-19.8039546 82.8615866 -22.82069996 86.44413312 -26 90 C-26.79277344 90.92425781 -27.58554687 91.84851563 -28.40234375 92.80078125 C-36.10737913 101.60131929 -44.90821859 108.56332338 -54.3125 115.4375 C-54.88709961 115.86297119 -55.46169922 116.28844238 -56.05371094 116.72680664 C-59.5716995 119.24701207 -62.83173078 120.84600111 -67 122 C-66 121 -65 120 -64 119 C-63.30003906 118.25878906 -62.60007812 117.51757812 -61.87890625 116.75390625 C-57.90428227 112.95185753 -53.51502672 109.8463614 -49.05859375 106.63671875 C-38.10307697 98.60267311 -29.67370138 88.13924394 -22 77 C-22.74765625 77.62648438 -23.4953125 78.25296875 -24.265625 78.8984375 C-25.25046875 79.71570313 -26.2353125 80.53296875 -27.25 81.375 C-28.22453125 82.18710937 -29.1990625 82.99921875 -30.203125 83.8359375 C-33.99340073 86.76863687 -36.42547497 88.2858175 -41.25 88.125 C-42.4875 88.08375 -43.725 88.0425 -45 88 C-45 87.67 -45 87.34 -45 87 C-43.824375 86.7525 -42.64875 86.505 -41.4375 86.25 C-35.70849278 84.8177482 -31.10331392 82.31927781 -27 78 C-26.34 78 -25.68 78 -25 78 C-25 77.34 -25 76.68 -25 76 C-24.360625 75.896875 -23.72125 75.79375 -23.0625 75.6875 C-22.381875 75.460625 -21.70125 75.23375 -21 75 C-20.505 73.515 -20.505 73.515 -20 72 C-18.79869392 70.35429669 -17.5645699 68.73241926 -16.3125 67.125 C-11.00627357 59.94823332 -6.43070789 51.91314573 -5 43 C-4.34 43 -3.68 43 -3 43 C-2.83012319 41.12528812 -2.66425224 39.25021305 -2.5 37.375 C-2.4071875 36.33085937 -2.314375 35.28671875 -2.21875 34.2109375 C-2.00875645 31.12853212 -1.96290273 28.08834771 -2 25 C-1.34 25 -0.68 25 0 25 C-0.08378906 23.69804687 -0.16757812 22.39609375 -0.25390625 21.0546875 C-0.3571234 19.32814604 -0.45996835 17.6015823 -0.5625 15.875 C-0.64661133 14.59109375 -0.64661133 14.59109375 -0.73242188 13.28125 C-0.99798352 8.67818141 -1.00515346 4.54180454 0 0 Z " fill="#00D1F9" transform="translate(341,448)" />
<path d="M0 0 C0.928125 0.00322266 1.85625 0.00644531 2.8125 0.00976562 C3.76382813 0.01814453 4.71515625 0.02652344 5.6953125 0.03515625 C6.66984375 0.03966797 7.644375 0.04417969 8.6484375 0.04882812 C11.03912684 0.06054719 13.4296869 0.07695406 15.8203125 0.09765625 C13.10185371 5.16270918 10.10625384 9.41060317 6.3203125 13.72265625 C5.37179527 14.81849087 4.42386911 15.91483742 3.4765625 17.01171875 C3.01765625 17.52895508 2.55875 18.04619141 2.0859375 18.57910156 C0.63059741 20.25946887 0.63059741 20.25946887 -1.0234375 22.99609375 C-3.1796875 25.09765625 -3.1796875 25.09765625 -11.1796875 25.09765625 C-11.1796875 17.17765625 -11.1796875 9.25765625 -11.1796875 1.09765625 C-7.1383541 0.42410068 -3.97677608 -0.024548 0 0 Z " fill="#01BAFB" transform="translate(133.1796875,454.90234375)" />
<path d="M0 0 C0.33 0 0.66 0 1 0 C1.24234375 1.10859375 1.4846875 2.2171875 1.734375 3.359375 C2.07215594 4.82309243 2.41073998 6.28662469 2.75 7.75 C2.98589844 8.84441406 2.98589844 8.84441406 3.2265625 9.9609375 C4.26865179 14.3697768 5.20179967 17.21017144 9 20 C16.34447142 23.43760549 23.95729161 24.68335794 32 25 C32.495 26.485 32.495 26.485 33 28 C32.23816406 28.17015625 31.47632813 28.3403125 30.69140625 28.515625 C24.76875869 29.90570957 19.37449774 31.48107785 13.9375 34.23046875 C12 35 12 35 8 35 C8.37994168 32.24542282 8.8073633 31.17979426 10.875 29.25 C13 28 13 28 16 28 C16 27.34 16 26.68 16 26 C4.78 26 -6.44 26 -18 26 C-17.01 25.01 -16.02 24.02 -15 23 C-14.67 22.34 -14.34 21.68 -14 21 C-13.01 21.66 -12.02 22.32 -11 23 C-11 22.34 -11 21.68 -11 21 C-10.38253906 20.7525 -9.76507813 20.505 -9.12890625 20.25 C-3.19186075 16.76402833 -1.7198352 6.24091712 0 0 Z " fill="#23C9EE" transform="translate(320,379)" />
<path d="M0 0 C0.33 0 0.66 0 1 0 C1.60465428 11.33887596 2.18966094 22.64141683 2 34 C2.79019531 33.84015625 3.58039063 33.6803125 4.39453125 33.515625 C15.44229134 31.93566364 31.16282085 30.64228239 40.765625 37.20703125 C42.1875 38.5 42.1875 38.5 44 41 C44 41.99 44 42.98 44 44 C44.66 44.66 45.32 45.32 46 46 C45.73605231 50.75105849 44.92777336 53.3402833 42 57 C41.65179959 58.66362417 41.31595508 60.32995171 41 62 C40.01 62.495 40.01 62.495 39 63 C39 63.66 39 64.32 39 65 C39.99 64.67 40.98 64.34 42 64 C42.33 64.99 42.66 65.98 43 67 C39.7 70.3 36.4 73.6 33 77 C33 73.09161134 34.50567876 71.88405893 37 69 C33.3817956 67.73933398 33.3817956 67.73933398 30 69 C31.39879664 65.86140655 33.08164985 63.67507511 35.4375 61.1875 C39.15196788 56.96792665 42.08180346 53.34371644 41.9375 47.4453125 C41.41359654 43.58842255 41.41359654 43.58842255 40 40 C35.31863193 37.05485729 31.16407353 36.53484034 25.7578125 36.48828125 C24.73482056 36.46332581 24.73482056 36.46332581 23.69116211 36.43786621 C21.16941439 36.38049638 18.6471515 36.34792154 16.125 36.3125 C10.47375 36.209375 4.8225 36.10625 -1 36 C-0.67 24.12 -0.34 12.24 0 0 Z " fill="#0262C1" transform="translate(256,419)" />
<path d="M0 0 C0.495 0.99 0.495 0.99 1 2 C-1.99635647 8.77437114 -6.76758337 14.27738509 -11.78515625 19.62890625 C-13.73590866 21.71727787 -15.55641736 23.86013973 -17.375 26.0625 C-23.2357583 32.79759054 -30.52522199 38.18292084 -38 43 C-39.18030371 43.92855637 -40.35847631 44.85982455 -41.53515625 45.79296875 C-46.14243203 49.26062456 -51.03066149 51.71035098 -56.25 54.125 C-57.17659424 54.55804443 -58.10318848 54.99108887 -59.05786133 55.43725586 C-68.18034884 59.64044977 -76.81696413 63.24235426 -86.94140625 63.82421875 C-89.19845858 63.93594853 -89.19845858 63.93594853 -92 65 C-95.07928776 65.22664228 -98.16321224 65.18515798 -101.25 65.1875 C-102.08402344 65.19974609 -102.91804687 65.21199219 -103.77734375 65.22460938 C-108.91507683 65.23670765 -113.1345282 64.66346536 -118 63 C-118 62.67 -118 62.34 -118 62 C-117.1028125 62.01160156 -116.205625 62.02320313 -115.28125 62.03515625 C-105.80697747 62.10366855 -96.44594783 61.71153974 -87 61 C-86.16984375 60.96261719 -85.3396875 60.92523437 -84.484375 60.88671875 C-59.44964509 59.26409737 -31.50184856 38.14125425 -15.25 20.0625 C-14.14648171 18.72473102 -13.06585409 17.36796693 -12 16 C-11.59765137 15.48727539 -11.19530273 14.97455078 -10.78076172 14.44628906 C-5.20472995 7.35885745 -5.20472995 7.35885745 0 0 Z " fill="#001C75" transform="translate(327,521)" />
<path d="M0 0 C0.66 0 1.32 0 2 0 C2.33 7.26 2.66 14.52 3 22 C2.01 22 1.02 22 0 22 C0 22.66 0 23.32 0 24 C-5.94 24 -11.88 24 -18 24 C-14.70579109 19.55281797 -11.35623958 15.17765566 -7.875 10.875 C-5.64186145 8.11340882 -3.52252757 5.37705855 -1.625 2.375 C-1.08875 1.59125 -0.5525 0.8075 0 0 Z " fill="#0071D1" transform="translate(148,456)" />
<path d="M0 0 C4.29 0 8.58 0 13 0 C7.90977118 3.81767162 3.85982717 5.30641005 -2.5 4.625 C-3.325 4.41875 -4.15 4.2125 -5 4 C-5.33 4.99 -5.66 5.98 -6 7 C-6.65226562 7.04898437 -7.30453125 7.09796875 -7.9765625 7.1484375 C-12.95786372 7.57456651 -17.30220899 8.200846 -22 10 C-23.62311225 10.54729735 -25.24823772 11.08864914 -26.875 11.625 C-28.04675781 12.01558594 -28.04675781 12.01558594 -29.2421875 12.4140625 C-29.82226562 12.60742188 -30.40234375 12.80078125 -31 13 C-31 13.66 -31 14.32 -31 15 C-32.27875 15.185625 -33.5575 15.37125 -34.875 15.5625 C-40.06651985 16.67789763 -43.58704084 19.22603324 -47.73828125 22.44140625 C-49.90836681 23.93685381 -51.42814617 24.57037682 -54 25 C-54 23.02 -54 21.04 -54 19 C-55.01320312 19.12568359 -55.01320312 19.12568359 -56.046875 19.25390625 C-56.93890625 19.35574219 -57.8309375 19.45757812 -58.75 19.5625 C-59.63171875 19.66691406 -60.5134375 19.77132813 -61.421875 19.87890625 C-64 20 -64 20 -68 19 C-68 24.94 -68 30.88 -68 37 C-66.68 37.66 -65.36 38.32 -64 39 C-65.98 39 -67.96 39 -70 39 C-71.31899228 35.01161858 -71.14712869 30.96162876 -71.125 26.8125 C-71.12886719 26.07580078 -71.13273438 25.33910156 -71.13671875 24.58007812 C-71.12668491 19.12668491 -71.12668491 19.12668491 -70 18 C-68.31391034 17.92794489 -66.62499341 17.91613932 -64.9375 17.9375 C-64.01839844 17.94652344 -63.09929687 17.95554687 -62.15234375 17.96484375 C-61.44207031 17.97644531 -60.73179687 17.98804688 -60 18 C-60 17.34 -60 16.68 -60 16 C-59.360625 16.185625 -58.72125 16.37125 -58.0625 16.5625 C-57.0415625 16.7790625 -57.0415625 16.7790625 -56 17 C-55.67 16.67 -55.34 16.34 -55 16 C-54.01 16.66 -53.02 17.32 -52 18 C-52 19.32 -52 20.64 -52 22 C-51.40574219 21.55269531 -50.81148437 21.10539062 -50.19921875 20.64453125 C-35.2748884 9.75882217 -17.74270782 5.17338331 0 1 C0 0.67 0 0.34 0 0 Z " fill="#4DEDFE" transform="translate(230,385)" />
<path d="M0 0 C-0.99 1.485 -0.99 1.485 -2 3 C-2.66 3 -3.32 3 -4 3 C-3.48050781 3.85980469 -2.96101563 4.71960938 -2.42578125 5.60546875 C10.69717982 27.6743294 10.69717982 27.6743294 8 41 C7.67 41 7.34 41 7 41 C7 39.02 7 37.04 7 35 C6.34 35 5.68 35 5 35 C5.33 32.36 5.66 29.72 6 27 C5.34 27 4.68 27 4 27 C3.34 24.69 2.68 22.38 2 20 C1.34 20 0.68 20 0 20 C0 20.99 0 21.98 0 23 C-0.30978688 25.06616782 -0.6457613 27.12848754 -1 29.1875 C-1.185625 30.27417969 -1.37125 31.36085938 -1.5625 32.48046875 C-1.706875 33.31191406 -1.85125 34.14335937 -2 35 C-4 33 -4 33 -4.0546875 29.21875 C-3.99832752 27.64570267 -3.93822759 26.07278626 -3.875 24.5 C-3.69706865 17.04022823 -4.5199647 11.74256839 -8 5 C-8.33 9.29 -8.66 13.58 -9 18 C-9.33 18 -9.66 18 -10 18 C-10.33 14.37 -10.66 10.74 -11 7 C-11.66 9.31 -12.32 11.62 -13 14 C-13.66 13.34 -14.32 12.68 -15 12 C-14.9765625 9.8359375 -14.9765625 9.8359375 -14.625 7.375 C-14.51414062 6.55773437 -14.40328125 5.74046875 -14.2890625 4.8984375 C-14.19367188 4.27195312 -14.09828125 3.64546875 -14 3 C-13.21625 2.87625 -12.4325 2.7525 -11.625 2.625 C-8.85942178 2.20882007 -8.85942178 2.20882007 -7 0 C-2.48387097 -1.24193548 -2.48387097 -1.24193548 0 0 Z " fill="#0A94E0" transform="translate(335,413)" />
<path d="M0 0 C4.62 0 9.24 0 14 0 C15.16959799 10.96498116 15.16959799 10.96498116 15 15 C14 16 14 16 11.09375 16.1328125 C9.9078125 16.13023437 8.721875 16.12765625 7.5 16.125 C6.3140625 16.12757813 5.128125 16.13015625 3.90625 16.1328125 C1 16 1 16 0 15 C-0.07313567 12.46950598 -0.09247527 9.96695163 -0.0625 7.4375 C-0.05798828 6.72658203 -0.05347656 6.01566406 -0.04882812 5.28320312 C-0.03700864 3.52209987 -0.01907263 1.76103964 0 0 Z " fill="#14DEFE" transform="translate(108,434)" />
<path d="M0 0 C6.6 0 13.2 0 20 0 C15.76130354 2.11934823 13.61666041 2.0871068 9 2 C8.67 2.33 8.34 2.66 8 3 C6.33382885 3.04063832 4.66611905 3.042721 3 3 C4.24508723 15.62586403 4.24508723 15.62586403 11 26 C26.08431572 36.93940809 44.18788593 36.75475309 62 37 C62 37.33 62 37.66 62 38 C44.23908787 41.60537651 26.41039249 39.54334953 11.08984375 29.6015625 C5.76375321 25.51988564 2.75680115 21.51415647 1 15 C0.71589543 12.34657051 0.49898532 9.7815765 0.375 7.125 C0.25125 4.77375 0.1275 2.4225 0 0 Z " fill="#084EAE" transform="translate(128,490)" />
<path d="M0 0 C0.33 0 0.66 0 1 0 C1.25394531 1.08539063 1.50789063 2.17078125 1.76953125 3.2890625 C2.11680382 4.73446724 2.46448164 6.17977465 2.8125 7.625 C2.97814453 8.33785156 3.14378906 9.05070312 3.31445312 9.78515625 C4.39046547 14.21101836 5.87334391 17.94168208 8 22 C8 22.66 8 23.32 8 24 C2.72 24 -2.56 24 -8 24 C-7.2532141 20.2660705 -6.70121966 18.06879876 -5.125 14.8125 C-2.90811673 10.00655597 -1.40397933 5.09474318 0 0 Z " fill="#09D8FC" transform="translate(320,379)" />
<path d="M0 0 C0.66 0 1.32 0 2 0 C5.04647075 15.37004736 5.37550398 29.51826717 3 45 C2.34 43.68 1.68 42.36 1 41 C0.34 41.66 -0.32 42.32 -1 43 C-2.12887105 35.59962314 -2.12887105 35.59962314 -1.52734375 32.80078125 C-0.90429627 29.49170686 -0.78385587 26.31516148 -0.68359375 22.94921875 C-0.66281265 22.29041214 -0.64203156 21.63160553 -0.62062073 20.95283508 C-0.55564511 18.86448815 -0.49648425 16.77602388 -0.4375 14.6875 C-0.39426521 13.2649622 -0.3506494 11.84243594 -0.30664062 10.41992188 C-0.20001784 6.94673703 -0.09860652 3.47342274 0 0 Z " fill="#0551AB" transform="translate(343,447)" />
<path d="M0 0 C-0.66 0.33 -1.32 0.66 -2 1 C-2 1.66 -2 2.32 -2 3 C-7.29544064 4.65262756 -12.44964261 5.56564184 -17.9375 6.3125 C-25.89398348 7.46463001 -33.27941337 9.41351664 -40.875 12.01171875 C-44 13 -44 13 -47 13 C-47 12.34 -47 11.68 -47 11 C-37.81456518 6.81211178 -28.80165517 3.51355329 -19 1 C-17.74896484 0.64228516 -17.74896484 0.64228516 -16.47265625 0.27734375 C-10.79185708 -1.23021455 -5.78217214 -0.8932792 0 0 Z " fill="#3DDFFA" transform="translate(224,381)" />
<path d="M0 0 C1.36907245 4.10721736 -0.2195563 6.30748447 -2 10 C-2.34160156 10.77988281 -2.68320312 11.55976563 -3.03515625 12.36328125 C-5.65088519 18.06468364 -8.78010218 22.38092308 -13.1328125 26.89453125 C-15.10723501 29.12091982 -16.47573932 31.45260544 -18 34 C-20.6875 36.3125 -20.6875 36.3125 -23 38 C-22.67 37.4225 -22.34 36.845 -22 36.25 C-20.72924102 33.80116138 -20.72924102 33.80116138 -21 30 C-21 27 -21 27 -19.53125 25.34375 C-18.8609375 24.7353125 -18.190625 24.126875 -17.5 23.5 C-10.38576139 16.65018442 -5.08255895 8.41798825 0 0 Z " fill="#0263C7" transform="translate(320,472)" />
<path d="M0 0 C0.66 0.99 1.32 1.98 2 3 C2.66 2.67 3.32 2.34 4 2 C4.98025171 12.12926764 1.42826651 20.63348614 -2 30 C-2.33 29.01 -2.66 28.02 -3 27 C-3.66 27 -4.32 27 -5 27 C-6.2348247 21.72393084 -5.7921848 18.53076038 -3.90234375 13.48828125 C-2.30437831 9.08177048 -1.19378121 4.52959536 0 0 Z " fill="#02328D" transform="translate(341,485)" />
<path d="M0 0 C-0.1015625 1.859375 -0.1015625 1.859375 -1 4 C-3.8359375 5.265625 -3.8359375 5.265625 -7.375 6.25 C-8.53773438 6.58515625 -9.70046875 6.9203125 -10.8984375 7.265625 C-14 8 -14 8 -17 8 C-17.33 8.99 -17.66 9.98 -18 11 C-18.66 11 -19.32 11 -20 11 C-20 11.66 -20 12.32 -20 13 C-21.32 13 -22.64 13 -24 13 C-24 12.34 -24 11.68 -24 11 C-24.85722656 11.2165625 -25.71445313 11.433125 -26.59765625 11.65625 C-37.9543058 14.42179262 -37.9543058 14.42179262 -44 14 C-44 13.34 -44 12.68 -44 12 C-42.71609375 11.72027344 -41.4321875 11.44054687 -40.109375 11.15234375 C-29.58243227 8.78884556 -19.43225099 5.99231972 -9.31152344 2.23608398 C-8.52551758 1.94548096 -7.73951172 1.65487793 -6.9296875 1.35546875 C-6.24116699 1.09403076 -5.55264648 0.83259277 -4.84326172 0.56323242 C-3 0 -3 0 0 0 Z " fill="#044BAC" transform="translate(232,547)" />
<path d="M0 0 C0.33 0 0.66 0 1 0 C1.08736736 3.72901814 1.14051482 7.45777165 1.1875 11.1875 C1.21263672 12.24259766 1.23777344 13.29769531 1.26367188 14.38476562 C1.27333984 15.40634766 1.28300781 16.42792969 1.29296875 17.48046875 C1.3086792 18.41785889 1.32438965 19.35524902 1.34057617 20.32104492 C0.93240008 23.53173756 -0.10834758 25.39703563 -2 28 C-3.97265625 28.85546875 -3.97265625 28.85546875 -6.0625 29.1875 C-9.41037217 29.73056667 -9.41037217 29.73056667 -12 32 C-12.99 32 -13.98 32 -15 32 C-15.91652344 32.02320313 -16.83304688 32.04640625 -17.77734375 32.0703125 C-19.34162109 32.09738281 -19.34162109 32.09738281 -20.9375 32.125 C-21.97777344 32.14820313 -23.01804688 32.17140625 -24.08984375 32.1953125 C-27 32 -27 32 -29.00390625 30.9921875 C-31.75464164 29.62489437 -33.95225836 29.87809033 -37 30 C-40.99099224 30.15963969 -43.55920995 30.11740926 -47 28 C-47 27.34 -47 26.68 -47 26 C-46.01032227 26.16226074 -45.02064453 26.32452148 -44.00097656 26.49169922 C-39.99626868 27.06127051 -36.02414802 27.1445252 -31.984375 27.1328125 C-31.24672913 27.13376923 -30.50908325 27.13472595 -29.74908447 27.13571167 C-28.20283929 27.1363876 -26.65659118 27.13457459 -25.11035156 27.13037109 C-22.74277434 27.12498356 -20.37538415 27.13035168 -18.0078125 27.13671875 C-16.49999958 27.13605846 -14.99218678 27.13477833 -13.484375 27.1328125 C-12.42497711 27.13584885 -12.42497711 27.13584885 -11.34417725 27.13894653 C-8.28449888 27.12428653 -5.92699677 26.97566559 -3 26 C-0.51715799 20.78096476 -0.5691148 15.2947699 -0.375 9.625 C-0.33632813 8.69816406 -0.29765625 7.77132812 -0.2578125 6.81640625 C-0.16412409 4.5444623 -0.07840652 2.27251404 0 0 Z " fill="#00268A" transform="translate(258,536)" />
<path d="M0 0 C2.51083114 1.25541557 2.87125446 2.50063488 4 5 C3.401875 5.556875 2.80375 6.11375 2.1875 6.6875 C-0.05128363 8.86864595 -0.05128363 8.86864595 -1.34375 11.375 C-3.15797865 14.25038126 -5.10997443 16.10852886 -7.6875 18.3125 C-8.49574219 19.00988281 -9.30398438 19.70726562 -10.13671875 20.42578125 C-11.05904297 21.20501953 -11.05904297 21.20501953 -12 22 C-12.66 21.67 -13.32 21.34 -14 21 C-13.525625 20.46375 -13.05125 19.9275 -12.5625 19.375 C-10.71813924 16.57157164 -10.37543153 14.30379742 -10 11 C-9.01 10.67 -8.02 10.34 -7 10 C-6.67 9.34 -6.34 8.68 -6 8 C-6.763125 8.495 -7.52625 8.99 -8.3125 9.5 C-11 11 -11 11 -14 11 C-12.42173185 9.53618641 -10.83717771 8.07914837 -9.25 6.625 C-8.36828125 5.81289063 -7.4865625 5.00078125 -6.578125 4.1640625 C-4.39336636 2.33018934 -2.66996289 0.96350835 0 0 Z " fill="#0393E8" transform="translate(289,485)" />
<path d="M0 0 C1.65 0 3.3 0 5 0 C4.67 0.66 4.34 1.32 4 2 C3.34 2 2.68 2 2 2 C2.185625 2.78375 2.37125 3.5675 2.5625 4.375 C3.12614779 9.04522451 2.56881862 13.35318945 2 18 C2 18.33 2 18.66 2 19 C4.31 19 6.62 19 9 19 C9.33 18.34 9.66 17.68 10 17 C10 17.66 10 18.32 10 19 C13.3 19 16.6 19 20 19 C21.99544337 23.11560195 22.26247139 26.45049584 22 31 C21.67 31.33 21.34 31.66 21 32 C20.76636119 33.84891946 20.58696365 35.70488031 20.4375 37.5625 C20.31181641 39.08037109 20.31181641 39.08037109 20.18359375 40.62890625 C20.12300781 41.41136719 20.06242187 42.19382812 20 43 C19.67 43 19.34 43 19 43 C19 35.74 19 28.48 19 21 C12.4 21 5.8 21 -1 21 C-1.07419234 13.8775349 -1.10390686 7.0374062 0 0 Z " fill="#17C8F8" transform="translate(150,432)" />
<path d="M0 0 C5.61 0 11.22 0 17 0 C17 0.33 17 0.66 17 1 C11.72 1 6.44 1 1 1 C1 6.61 1 12.22 1 18 C2.28688721 17.93941406 3.57377441 17.87882812 4.8996582 17.81640625 C9.66866825 17.59206854 14.43772092 17.36864865 19.20678711 17.14550781 C21.27190306 17.0487537 23.33700731 16.95174979 25.40209961 16.85449219 C28.36829651 16.71483939 31.33453412 16.57608133 34.30078125 16.4375 C35.2258699 16.39375244 36.15095856 16.35000488 37.1040802 16.30493164 C37.96474594 16.26489014 38.82541168 16.22484863 39.7121582 16.18359375 C40.84800102 16.13029907 40.84800102 16.13029907 42.00679016 16.07592773 C43.67017943 16.01256392 45.3354043 16 47 16 C46.505 13.03 46.505 13.03 46 10 C46.66 10 47.32 10 48 10 C48 11.65 48 13.3 48 15 C48.66 15.33 49.32 15.66 50 16 C47.27035035 18.72964965 44.67858985 18.6282958 41 19 C39.64261719 19.17402344 39.64261719 19.17402344 38.2578125 19.3515625 C31.12871917 20.1477989 24.97111252 19.66044215 18 18 C18 20.64 18 23.28 18 26 C17.67 26 17.34 26 17 26 C17 23.69 17 21.38 17 19 C15.7625 19.2475 15.7625 19.2475 14.5 19.5 C9.53738006 20.20894571 4.82204249 20.6073475 0 19 C0 12.73 0 6.46 0 0 Z " fill="#36DFFA" transform="translate(132,414)" />
<path d="M0 0 C0.495 1.485 0.495 1.485 1 3 C1.66 3.33 2.32 3.66 3 4 C-3.56623621 10.42706742 -10.37944723 16.23544628 -17.875 21.5625 C-18.587771 22.07458008 -19.30054199 22.58666016 -20.03491211 23.11425781 C-23.91072834 25.81719543 -27.37186452 27.77405189 -32 29 C-31 28 -30 27 -29 26 C-28.30003906 25.25878906 -27.60007812 24.51757812 -26.87890625 23.75390625 C-22.90428227 19.95185753 -18.51502672 16.8463614 -14.05859375 13.63671875 C-5.92991931 7.82974483 -5.92991931 7.82974483 0 0 Z " fill="#00B9F3" transform="translate(306,541)" />
<path d="M0 0 C2.40179685 2.40179685 2.25598087 2.96950007 2.265625 6.24609375 C2.26820313 7.08333984 2.27078125 7.92058594 2.2734375 8.78320312 C2.26570313 9.65912109 2.25796875 10.53503906 2.25 11.4375 C2.25773437 12.30955078 2.26546875 13.18160156 2.2734375 14.08007812 C2.27085937 14.91861328 2.26828125 15.75714844 2.265625 16.62109375 C2.26336914 17.3886499 2.26111328 18.15620605 2.25878906 18.94702148 C2 21 2 21 0 24 C0 23.34 0 22.68 0 22 C-1.65 21.67 -3.3 21.34 -5 21 C-5.22142255 19.04310341 -5.4267568 17.08438048 -5.625 15.125 C-5.74101562 14.03445313 -5.85703125 12.94390625 -5.9765625 11.8203125 C-5.98429687 10.88960938 -5.99203125 9.95890625 -6 9 C-5.34 8.34 -4.68 7.68 -4 7 C-3.67 7.66 -3.34 8.32 -3 9 C-2.34 9 -1.68 9 -1 9 C-0.67 6.03 -0.34 3.06 0 0 Z " fill="#045FC0" transform="translate(323,418)" />
<path d="M0 0 C10.32619179 0.46937235 21.50494976 7.11775261 29 14 C29.76953125 16.2109375 29.76953125 16.2109375 30 18 C27.13026116 19.61635488 24.95535797 20.2733418 21.671875 20.4140625 C20.47304688 20.47207031 20.47304688 20.47207031 19.25 20.53125 C18.0125 20.57765625 18.0125 20.57765625 16.75 20.625 C15.90953125 20.66367187 15.0690625 20.70234375 14.203125 20.7421875 C12.13576618 20.83615836 10.06791373 20.91915564 8 21 C8 20.34 8 19.68 8 19 C8.86625 18.855625 9.7325 18.71125 10.625 18.5625 C12.83800288 18.19366619 15.04684055 17.79868451 17.25 17.375 C20 17 20 17 22 18 C22.66 16.68 23.32 15.36 24 14 C18.05424928 9.52456508 12.21289988 5.93723693 5.34765625 3.04296875 C3 2 3 2 0 0 Z " fill="#0270CF" transform="translate(276,385)" />
<path d="M0 0 C0 0.33 0 0.66 0 1 C-1.65 1 -3.3 1 -5 1 C-5.33 1.66 -5.66 2.32 -6 3 C-6.556875 2.8246875 -7.11375 2.649375 -7.6875 2.46875 C-10.32059604 1.93501432 -12.34339135 2.14362567 -15 2.5 C-18.37136595 2.95225641 -20.73437261 2.90062566 -24 2 C-26.65466049 2.23043864 -26.65466049 2.23043864 -29 3 C-29.33 3.66 -29.66 4.32 -30 5 C-23.73 5 -17.46 5 -11 5 C-11 5.33 -11 5.66 -11 6 C-19.58 6 -28.16 6 -37 6 C-35.68 5.67 -34.36 5.34 -33 5 C-33 4.34 -33 3.68 -33 3 C-35.97 2.505 -35.97 2.505 -39 2 C-39 1.67 -39 1.34 -39 1 C-26.12565603 -1.84489249 -13.03075642 -0.91173215 0 0 Z " fill="#12BCF2" transform="translate(255,379)" />
<path d="M0 0 C1.01900391 0.43119141 1.01900391 0.43119141 2.05859375 0.87109375 C5.35267223 2.13535495 8.66616791 3.10716808 12.0625 4.0625 C13.27035156 4.40410156 14.47820312 4.74570312 15.72265625 5.09765625 C16.80417969 5.39542969 17.88570312 5.69320312 19 6 C19.91011841 6.26562744 19.91011841 6.26562744 20.83862305 6.53662109 C23.52951091 7.11352216 26.10897678 7.21817774 28.859375 7.31640625 C29.97441406 7.35830078 31.08945313 7.40019531 32.23828125 7.44335938 C33.39714844 7.48267578 34.55601562 7.52199219 35.75 7.5625 C36.92433594 7.60568359 38.09867188 7.64886719 39.30859375 7.69335938 C42.20561451 7.79934794 45.10271935 7.90141638 48 8 C48 8.33 48 8.66 48 9 C33.43789987 11.95603364 18.56769792 11.03415137 5 5 C4.22914063 4.67773438 3.45828125 4.35546875 2.6640625 4.0234375 C1 3 1 3 0 0 Z " fill="#054CAC" transform="translate(142,519)" />
<path d="M0 0 C1.40185547 0.00966797 1.40185547 0.00966797 2.83203125 0.01953125 C4.28416016 0.04466797 4.28416016 0.04466797 5.765625 0.0703125 C6.74917969 0.07933594 7.73273438 0.08835937 8.74609375 0.09765625 C11.16951907 0.12118465 13.59244722 0.15405882 16.015625 0.1953125 C13.42142827 4.94579668 11.56608674 8.03526963 7.015625 11.1953125 C7.325 10.5971875 7.634375 9.9990625 7.953125 9.3828125 C9.11772204 7.10574478 9.11772204 7.10574478 10.015625 4.1953125 C2.91933475 3.88069865 -2.66722095 3.74959211 -8.984375 7.1953125 C-8.984375 5.5453125 -8.984375 3.8953125 -8.984375 2.1953125 C-5.85508322 0.36461347 -3.60794354 -0.04399931 0 0 Z " fill="#0CCDFC" transform="translate(132.984375,454.8046875)" />
<path d="M0 0 C4.29 0 8.58 0 13 0 C7.90977118 3.81767162 3.85982717 5.30641005 -2.5 4.625 C-3.325 4.41875 -4.15 4.2125 -5 4 C-5.33 4.99 -5.66 5.98 -6 7 C-6.65226562 7.04898437 -7.30453125 7.09796875 -7.9765625 7.1484375 C-12.98033491 7.57648883 -17.24933002 8.31747105 -22 10 C-25.32029603 10.73728628 -28.6562129 11.37882216 -32 12 C-31 10 -31 10 -28.18359375 8.8515625 C-18.87636341 5.80414818 -9.53278746 3.24227195 0 1 C0 0.67 0 0.34 0 0 Z " fill="#36E1FC" transform="translate(230,385)" />
<path d="M0 0 C-3.47035782 2.31357188 -5.90752784 2.48844098 -10 3 C-10.99 3.33 -11.98 3.66 -13 4 C-12.33291016 4.70576172 -12.33291016 4.70576172 -11.65234375 5.42578125 C-11.08644531 6.04839844 -10.52054688 6.67101562 -9.9375 7.3125 C-9.36902344 7.92738281 -8.80054688 8.54226563 -8.21484375 9.17578125 C-7.81394531 9.77777344 -7.41304687 10.37976563 -7 11 C-7.33 11.99 -7.66 12.98 -8 14 C-9.33897583 13.04956626 -10.67105427 12.08940853 -12 11.125 C-12.7425 10.59132813 -13.485 10.05765625 -14.25 9.5078125 C-14.8275 9.01023437 -15.405 8.51265625 -16 8 C-16 7.34 -16 6.68 -16 6 C-16.5775 5.731875 -17.155 5.46375 -17.75 5.1875 C-20.0325868 3.98280141 -21.9737942 2.59201885 -24 1 C-15.98340366 -0.12513633 -8.07861415 -0.09579384 0 0 Z " fill="#06358D" transform="translate(187,561)" />
<path d="M0 0 C7.26 0 14.52 0 22 0 C22 0.33 22 0.66 22 1 C15.07 1 8.14 1 1 1 C1 3.97 1 6.94 1 10 C1.66 10 2.32 10 3 10 C2.95875 11.2375 2.9175 12.475 2.875 13.75 C2.86341709 17.01637962 3.1431298 19.2146947 5 22 C5.33 21.34 5.66 20.68 6 20 C6.99 20.99 7.98 21.98 9 23 C8.67 23.33 8.34 23.66 8 24 C5.36 24 2.72 24 0 24 C0 16.08 0 8.16 0 0 Z " fill="#0FA2E7" transform="translate(122,456)" />
<path d="M0 0 C0.98637451 -0.02586182 1.97274902 -0.05172363 2.98901367 -0.07836914 C9.26426999 -0.09487037 12.97300989 0.74421031 18.125 4.375 C17.795 5.365 17.465 6.355 17.125 7.375 C17.125 6.715 17.125 6.055 17.125 5.375 C2.93517086 1.17060618 -12.4665401 3.33228163 -26.875 5.375 C-26.875 4.715 -26.875 4.055 -26.875 3.375 C-19.09118087 -0.51690957 -8.50120885 0.11385247 0 0 Z " fill="#10BAF2" transform="translate(235.875,407.625)" />
<path d="M0 0 C0.99 -0.33 1.98 -0.66 3 -1 C1.61967747 3.14096759 -0.36087833 3.52831697 -4.1875 5.5 C-5.31542969 6.0878125 -6.44335938 6.675625 -7.60546875 7.28125 C-8.72566406 7.8484375 -9.84585938 8.415625 -11 9 C-12.08925781 9.5878125 -13.17851562 10.175625 -14.30078125 10.78125 C-15.19152344 11.1834375 -16.08226562 11.585625 -17 12 C-17.66 11.67 -18.32 11.34 -19 11 C-19 9.68 -19 8.36 -19 7 C-16.40163864 5.63354299 -13.79734444 4.28169331 -11.1875 2.9375 C-10.44951172 2.54755859 -9.71152344 2.15761719 -8.95117188 1.75585938 C-8.23896484 1.39169922 -7.52675781 1.02753906 -6.79296875 0.65234375 C-6.1383667 0.31195068 -5.48376465 -0.02844238 -4.80932617 -0.37915039 C-3 -1 -3 -1 0 0 Z " fill="#0459BB" transform="translate(250,539)" />
<path d="M0 0 C3.33331439 -0.02937438 6.66659483 -0.04692334 10 -0.0625 C10.93457031 -0.07087891 11.86914062 -0.07925781 12.83203125 -0.08789062 C18.32274401 -0.10708892 23.56866481 0.1865807 29 1 C27.3125 2.5625 27.3125 2.5625 25 4 C23.32345271 3.72057545 21.65391846 3.39171753 20 3 C19.34 3.66 18.68 4.32 18 5 C15.65234375 5.01171875 15.65234375 5.01171875 12.9375 4.6875 C12.03902344 4.58824219 11.14054688 4.48898437 10.21484375 4.38671875 C8 4 8 4 7 3 C4.67182036 2.63239269 2.3381615 2.29758419 0 2 C0 1.34 0 0.68 0 0 Z " fill="#0672CC" transform="translate(174,507)" />
<path d="M0 0 C0.495 0.70125 0.99 1.4025 1.5 2.125 C4.61075437 5.70236753 8.14380244 8.27632648 12 11 C11.34 13.31 10.68 15.62 10 18 C5.79814073 16.4906847 4.37843101 13.89801382 2.1875 10.125 C1.56230469 9.07570313 0.93710938 8.02640625 0.29296875 6.9453125 C-1 4 -1 4 -0.69921875 1.6171875 C-0.46847656 1.08351563 -0.23773438 0.54984375 0 0 Z " fill="#08C5F3" transform="translate(129,517)" />
<path d="M0 0 C0.33 0 0.66 0 1 0 C1.05797565 3.93743833 1.09358789 7.87476719 1.125 11.8125 C1.14175781 12.93205078 1.15851563 14.05160156 1.17578125 15.20507812 C1.18222656 16.27822266 1.18867188 17.35136719 1.1953125 18.45703125 C1.20578613 19.44678955 1.21625977 20.43654785 1.22705078 21.45629883 C1 24 1 24 -1 27 C-4.1184325 28.0394775 -6.27475586 28.11494838 -9.54296875 28.09765625 C-10.61611328 28.09443359 -11.68925781 28.09121094 -12.79492188 28.08789062 C-13.91447266 28.07951172 -15.03402344 28.07113281 -16.1875 28.0625 C-17.31865234 28.05798828 -18.44980469 28.05347656 -19.61523438 28.04882812 C-22.41020927 28.03703498 -25.2050782 28.0205765 -28 28 C-28 27.67 -28 27.34 -28 27 C-15.625 26.01 -15.625 26.01 -3 25 C-1.25048606 19.12130964 -1.25048606 19.12130964 -0.5859375 13.37890625 C-0.54726562 12.58935547 -0.50859375 11.79980469 -0.46875 10.98632812 C-0.42234375 9.7865332 -0.42234375 9.7865332 -0.375 8.5625 C-0.33632812 7.73556641 -0.29765625 6.90863281 -0.2578125 6.05664062 C-0.16446908 4.03808927 -0.08119039 2.01907669 0 0 Z " fill="#00BFFB" transform="translate(256,536)" />
<path d="M0 0 C0.66 0 1.32 0 2 0 C2.50682442 3.01982884 3.00563335 6.04062817 3.5 9.0625 C3.64308594 9.91005859 3.78617187 10.75761719 3.93359375 11.63085938 C4.72200421 16.49272389 5.16037074 21.07528186 5 26 C4.34 25.67 3.68 25.34 3 25 C2.65977214 23.00116131 2.32670903 21.00109278 2 19 C1.34 18.34 0.68 17.68 0 17 C-0.14517744 14.0906442 -0.18630796 11.280054 -0.125 8.375 C-0.11597656 7.57320313 -0.10695313 6.77140625 -0.09765625 5.9453125 C-0.07406223 3.96341477 -0.03819065 1.98167019 0 0 Z " fill="#0865BD" transform="translate(343,447)" />
<path d="M0 0 C0 3.99282941 -1.47808076 5.15331592 -4 8.1875 C-4.7425 9.08855469 -5.485 9.98960937 -6.25 10.91796875 C-6.8275 11.60503906 -7.405 12.29210937 -8 13 C-8.66 12.34 -9.32 11.68 -10 11 C-10.61875 11.309375 -11.2375 11.61875 -11.875 11.9375 C-16.90310354 14.45155177 -21.54063085 14.74699813 -27 13 C-26.67 12.01 -26.34 11.02 -26 10 C-25.34 10.33 -24.68 10.66 -24 11 C-18.66021235 11.89184614 -14.85049908 11.31219431 -10.3125 8.3125 C-8.85446242 7.23559856 -7.41567681 6.13201124 -6 5 C-5.37351562 4.50113281 -4.74703125 4.00226562 -4.1015625 3.48828125 C-2.71321043 2.35087544 -1.35285164 1.17940912 0 0 Z " fill="#0066CC" transform="translate(319,524)" />
<path d="M0 0 C4.62 0 9.24 0 14 0 C15.16959799 10.96498116 15.16959799 10.96498116 15 15 C14 16 14 16 11.09375 16.1328125 C9.9078125 16.13023437 8.721875 16.12765625 7.5 16.125 C6.3140625 16.12757813 5.128125 16.13015625 3.90625 16.1328125 C1 16 1 16 0 15 C-0.07313567 12.46950598 -0.09247527 9.96695163 -0.0625 7.4375 C-0.05798828 6.72658203 -0.05347656 6.01566406 -0.04882812 5.28320312 C-0.03700864 3.52209987 -0.01907263 1.76103964 0 0 Z M1 1 C1 5.29 1 9.58 1 14 C4.96 14 8.92 14 13 14 C13 9.71 13 5.42 13 1 C9.04 1 5.08 1 1 1 Z " fill="#39D2F3" transform="translate(108,434)" />
<path d="M0 0 C-0.99 0.495 -0.99 0.495 -2 1 C-2 1.66 -2 2.32 -2 3 C-6.59232335 4.82855428 -9.97358268 5.12514462 -14.875 4.625 C-16.60363281 4.45871094 -16.60363281 4.45871094 -18.3671875 4.2890625 C-19.23601562 4.19367188 -20.10484375 4.09828125 -21 4 C-20.34 3.67 -19.68 3.34 -19 3 C-19 2.34 -19 1.68 -19 1 C-12.36801431 -0.93833398 -6.81402575 -1.05268874 0 0 Z " fill="#1DDAFD" transform="translate(224,381)" />
<path d="M0 0 C0 0.66 0 1.32 0 2 C-4.74493244 4.44025097 -9.17266489 4.2983189 -14.375 4.25 C-15.6125 4.26160156 -15.6125 4.26160156 -16.875 4.2734375 C-21.96368373 4.25728295 -26.17927081 3.63722878 -31 2 C-31 1.67 -31 1.34 -31 1 C-29.54980469 1.01740234 -29.54980469 1.01740234 -28.0703125 1.03515625 C-21.36004407 1.08166306 -14.77106898 1.01366177 -8.09765625 0.22265625 C-5.39199362 -0.06453699 -2.71781238 -0.07152138 0 0 Z " fill="#003493" transform="translate(240,582)" />
<path d="M0 0 C0 3.31182831 -0.54378413 4.31302564 -2.25 7.0625 C-2.87648438 8.10083984 -2.87648438 8.10083984 -3.515625 9.16015625 C-5.2204333 11.27322127 -6.55192868 11.86809606 -9 13 C-10.89427118 14.32707537 -12.76811398 15.68359947 -14.625 17.0625 C-20.47868311 21.40175839 -22.82138146 22.11578417 -30 22 C-30 21.67 -30 21.34 -30 21 C-28.824375 20.7525 -27.64875 20.505 -26.4375 20.25 C-20.70849278 18.8177482 -16.10331392 16.31927781 -12 12 C-11.34 12 -10.68 12 -10 12 C-10 11.34 -10 10.68 -10 10 C-9.360625 9.896875 -8.72125 9.79375 -8.0625 9.6875 C-7.381875 9.460625 -6.70125 9.23375 -6 9 C-5.67 8.01 -5.34 7.02 -5 6 C-3.44018962 3.89809159 -1.71637262 1.98042995 0 0 Z " fill="#009BF0" transform="translate(326,514)" />
<path d="M0 0 C0.33 0 0.66 0 1 0 C1.495 15.345 1.495 15.345 2 31 C-1.85740233 32.92870117 -3.11629643 33.24283376 -7.203125 33.1953125 C-8.67265625 33.18564453 -8.67265625 33.18564453 -10.171875 33.17578125 C-11.69554687 33.15064453 -11.69554687 33.15064453 -13.25 33.125 C-14.28125 33.11597656 -15.3125 33.10695313 -16.375 33.09765625 C-18.91690287 33.07412011 -21.4583328 33.04124023 -24 33 C-24 32.34 -24 31.68 -24 31 C-16.41 30.67 -8.82 30.34 -1 30 C-0.67 20.1 -0.34 10.2 0 0 Z " fill="#10BEF4" transform="translate(203,423)" />
<path d="M0 0 C0.66 0 1.32 0 2 0 C3.15692746 2.51624171 4.30057432 5.03723454 5.4375 7.5625 C5.76298828 8.26697266 6.08847656 8.97144531 6.42382812 9.69726562 C9.53072248 16.64774062 10.3927084 22.4174765 9 30 C8.67 30 8.34 30 8 30 C8 28.02 8 26.04 8 24 C7.34 24 6.68 24 6 24 C6.0825 22.865625 6.165 21.73125 6.25 20.5625 C6.28668956 15.43513383 4.3225558 11.47921476 2 7 C1.67 7 1.34 7 1 7 C0.67 4.69 0.34 2.38 0 0 Z " fill="#0B7FCF" transform="translate(334,424)" />
<path d="M0 0 C0.33 0.66 0.66 1.32 1 2 C0.0625 4.625 0.0625 4.625 -1 7 C0.86265132 7 2.71370324 6.70831513 4.5625 6.5 C5.38878906 6.4071875 6.21507812 6.314375 7.06640625 6.21875 C8.02353516 6.11046875 8.02353516 6.11046875 9 6 C9.33 7.32 9.66 8.64 10 10 C4.06 10 -1.88 10 -8 10 C-2.25 2.25 -2.25 2.25 0 0 Z " fill="#0267C6" transform="translate(138,470)" />
<path d="M0 0 C0 1.65 0 3.3 0 5 C-0.99 5 -1.98 5 -3 5 C-3 4.34 -3 3.68 -3 3 C-3.85722656 3.2165625 -4.71445313 3.433125 -5.59765625 3.65625 C-16.9543058 6.42179262 -16.9543058 6.42179262 -23 6 C-23 5.34 -23 4.68 -23 4 C-20.29352533 3.32488828 -17.58522815 2.65972659 -14.875 2 C-14.11445313 1.80921875 -13.35390625 1.6184375 -12.5703125 1.421875 C-8.28411166 0.3872748 -4.44599099 -0.2272711 0 0 Z " fill="#053F9C" transform="translate(211,555)" />
<path d="M0 0 C-0.99 1.485 -0.99 1.485 -2 3 C-3.32 2.67 -4.64 2.34 -6 2 C-6.33 3.32 -6.66 4.64 -7 6 C-7.33 5.67 -7.66 5.34 -8 5 C-8.33 9.29 -8.66 13.58 -9 18 C-9.33 18 -9.66 18 -10 18 C-10.33 14.37 -10.66 10.74 -11 7 C-11.66 9.31 -12.32 11.62 -13 14 C-13.66 13.34 -14.32 12.68 -15 12 C-14.9765625 9.8359375 -14.9765625 9.8359375 -14.625 7.375 C-14.51414062 6.55773437 -14.40328125 5.74046875 -14.2890625 4.8984375 C-14.19367188 4.27195312 -14.09828125 3.64546875 -14 3 C-13.21625 2.87625 -12.4325 2.7525 -11.625 2.625 C-8.85942178 2.20882007 -8.85942178 2.20882007 -7 0 C-2.48387097 -1.24193548 -2.48387097 -1.24193548 0 0 Z " fill="#1D9FDF" transform="translate(335,413)" />
<path d="M0 0 C0.33 1.32 0.66 2.64 1 4 C0.01 4.495 0.01 4.495 -1 5 C-1 5.66 -1 6.32 -1 7 C-0.01 6.67 0.98 6.34 2 6 C2.33 6.99 2.66 7.98 3 9 C-0.3 12.3 -3.6 15.6 -7 19 C-7 15.09161134 -5.49432124 13.88405893 -3 11 C-3.99 10.67 -4.98 10.34 -6 10 C-5.67 8.68 -5.34 7.36 -5 6 C-4.34 6 -3.68 6 -3 6 C-2.690625 5.38125 -2.38125 4.7625 -2.0625 4.125 C-1.375 2.75 -0.6875 1.375 0 0 Z " fill="#046DCA" transform="translate(296,477)" />
<path d="M0 0 C6.27 0 12.54 0 19 0 C19 0.33 19 0.66 19 1 C17.10440036 1.16930395 15.20850769 1.33532864 13.3125 1.5 C11.72888672 1.63921875 11.72888672 1.63921875 10.11328125 1.78125 C7.41452498 1.97087403 4.70540989 2 2 2 C1.67 8.6 1.34 15.2 1 22 C0.67 22 0.34 22 0 22 C-0.19617816 19.45873828 -0.38217248 16.91739541 -0.5625 14.375 C-0.61857422 13.66214844 -0.67464844 12.94929688 -0.73242188 12.21484375 C-0.78076172 11.51230469 -0.82910156 10.80976563 -0.87890625 10.0859375 C-0.9260376 9.4470459 -0.97316895 8.8081543 -1.02172852 8.14990234 C-0.99405868 5.41214278 -0.45010789 2.70064732 0 0 Z " fill="#047ED4" transform="translate(157,484)" />
<path d="M0 0 C0.33 0 0.66 0 1 0 C1.08133791 1.91595968 1.13934367 3.83291932 1.1875 5.75 C1.23970703 7.35101563 1.23970703 7.35101563 1.29296875 8.984375 C0.96637079 12.34615665 0.4691694 13.71393754 -2 16 C-3.32 16 -4.64 16 -6 16 C-6 15.01 -6 14.02 -6 13 C-10.07964281 14.30155006 -10.07964281 14.30155006 -14 16 C-16.125 15.0625 -16.125 15.0625 -18 14 C-18 13.34 -18 12.68 -18 12 C-12.06 11.67 -6.12 11.34 0 11 C0 7.37 0 3.74 0 0 Z " fill="#06A1EC" transform="translate(170,464)" />
<path d="M0 0 C0.66 0 1.32 0 2 0 C2 6.6 2 13.2 2 20 C1.67 20 1.34 20 1 20 C0.67 16.7 0.34 13.4 0 10 C-1.32 10 -2.64 10 -4 10 C-4.99 10 -5.98 10 -7 10 C-6.57847656 9.44570313 -6.15695313 8.89140625 -5.72265625 8.3203125 C-5.17480469 7.59585937 -4.62695312 6.87140625 -4.0625 6.125 C-3.51722656 5.40570313 -2.97195312 4.68640625 -2.41015625 3.9453125 C-0.96035376 2.05642921 -0.96035376 2.05642921 0 0 Z " fill="#0999E5" transform="translate(148,456)" />
<path d="M0 0 C6.6 0 13.2 0 20 0 C15.76130354 2.11934823 13.61666041 2.0871068 9 2 C8.67 2.33 8.34 2.66 8 3 C6.35 3 4.7 3 3 3 C2.67 6.96 2.34 10.92 2 15 C1.67 15 1.34 15 1 15 C0.67 10.05 0.34 5.1 0 0 Z " fill="#0863C0" transform="translate(128,490)" />
<path d="M0 0 C10.97729643 0.49896802 20.48063761 7.62932636 29 14 C28.01 14.33 27.02 14.66 26 15 C23.74978113 13.6996072 21.68264938 12.36277881 19.5625 10.875 C13.34288764 6.67165357 7.07357201 3.57809676 0 1 C0 0.67 0 0.34 0 0 Z " fill="#0783D5" transform="translate(276,385)" />
<path d="M0 0 C0.33 0 0.66 0 1 0 C2.30433619 5.93627021 2.11086318 11.83332252 2.0625 17.875 C2.05798828 18.94492187 2.05347656 20.01484375 2.04882812 21.1171875 C2.03709749 23.74484986 2.02068228 26.37239538 2 29 C0.38928396 26.13461669 -0.28123162 23.93999056 -0.44921875 20.6640625 C-0.49240234 19.84679687 -0.53558594 19.02953125 -0.58007812 18.1875 C-0.61552734 17.341875 -0.65097656 16.49625 -0.6875 15.625 C-0.73455078 14.78710938 -0.78160156 13.94921875 -0.83007812 13.0859375 C-1.04696715 8.56326806 -0.96575543 4.4584499 0 0 Z " fill="#00C2F9" transform="translate(341,448)" />
<path d="M0 0 C0.33 0.99 0.66 1.98 1 3 C0.34 3.66 -0.32 4.32 -1 5 C-1.89332031 5.94939453 -1.89332031 5.94939453 -2.8046875 6.91796875 C-5.1087603 9.10314811 -7.40691558 10.67759251 -10.125 12.3125 C-10.99382812 12.84488281 -11.86265625 13.37726562 -12.7578125 13.92578125 C-13.49773437 14.28027344 -14.23765625 14.63476562 -15 15 C-15.66 14.67 -16.32 14.34 -17 14 C-16.2575 13.608125 -15.515 13.21625 -14.75 12.8125 C-11.92975051 11.16255312 -11.92975051 11.16255312 -10.1875 8.6875 C-7.26798428 5.1006664 -3.75864618 2.65477194 0 0 Z " fill="#0091E8" transform="translate(291,555)" />
<path d="M0 0 C0.33 0 0.66 0 1 0 C1.08139142 2.39652528 1.14067009 4.79025436 1.1875 7.1875 C1.21263672 7.86103516 1.23777344 8.53457031 1.26367188 9.22851562 C1.3289449 13.68883882 0.73686642 16.44965691 -2 20 C-2.33 20 -2.66 20 -3 20 C-5.00602647 12.81173849 -2.4002564 6.85051718 0 0 Z " fill="#003796" transform="translate(341,485)" />
<path d="M0 0 C0.99 0 1.98 0 3 0 C3.33 4.95 3.66 9.9 4 15 C3.67 15 3.34 15 3 15 C2.67 13.35 2.34 11.7 2 10 C1.34 13.3 0.68 16.6 0 20 C-0.33 20 -0.66 20 -1 20 C-0.67 13.4 -0.34 6.8 0 0 Z " fill="#023B9D" transform="translate(343,464)" />
<path d="M0 0 C0.99 0 1.98 0 3 0 C2.67 0.99 2.34 1.98 2 3 C1.01 3 0.02 3 -1 3 C-1.0825 3.61875 -1.165 4.2375 -1.25 4.875 C-2 7 -2 7 -3.9375 8.125 C-4.618125 8.41375 -5.29875 8.7025 -6 9 C-6.66 9.66 -7.32 10.32 -8 11 C-8.66 10.34 -9.32 9.68 -10 9 C-10.99 9 -11.98 9 -13 9 C-9.38407343 5.80453001 -6.57417388 3.65178501 -2 2 C-1.34 1.34 -0.68 0.68 0 0 Z " fill="#02B3F6" transform="translate(280,493)" />
<path d="M0 0 C5.54819573 -0.85356857 8.65781674 1.23283662 13.00390625 4.34765625 C15.42226596 6.34954697 16.90858136 8.03757799 18 11 C17.5546875 13.1484375 17.5546875 13.1484375 17 15 C16.62488281 14.38511719 16.24976563 13.77023437 15.86328125 13.13671875 C11.43604144 6.1445793 7.98588726 3.41433801 0 1 C0 0.67 0 0.34 0 0 Z " fill="#0661C0" transform="translate(300,409)" />
<path d="M0 0 C0.99 0 1.98 0 3 0 C2.54554036 1.41791408 2.08625056 2.83428046 1.625 4.25 C1.36976563 5.03890625 1.11453125 5.8278125 0.8515625 6.640625 C0.04826333 8.86627958 -0.89711662 10.90931672 -2 13 C-2.66 13 -3.32 13 -4 13 C-3.67 13.99 -3.34 14.98 -3 16 C-3.66 16.33 -4.32 16.66 -5 17 C-6.30230734 13.99353048 -5.96485975 12.90644333 -4.78515625 9.765625 C-4.21667969 8.60546875 -3.64820313 7.4453125 -3.0625 6.25 C-2.21365234 4.49429687 -2.21365234 4.49429687 -1.34765625 2.703125 C-0.90292969 1.81109375 -0.45820313 0.9190625 0 0 Z " fill="#0564C3" transform="translate(327,457)" />
<path d="M0 0 C1.32 0.66 2.64 1.32 4 2 C4 1.34 4 0.68 4 0 C4.99 0 5.98 0 7 0 C7 0.99 7 1.98 7 3 C12.28 3 17.56 3 23 3 C23 3.33 23 3.66 23 4 C14.42 4.33 5.84 4.66 -3 5 C-2.01 4.01 -1.02 3.02 0 2 C0 1.34 0 0.68 0 0 Z " fill="#1F9CDC" transform="translate(305,400)" />
<path d="M0 0 C-0.99 1.485 -0.99 1.485 -2 3 C-0.35 2.67 1.3 2.34 3 2 C-1.22385456 5.44165927 -4.50060584 7 -10 7 C-9.63206382 4.33246269 -9.18001672 3.18001672 -7.25 1.25 C-4.62056017 -0.21079991 -2.9625559 -0.24687966 0 0 Z " fill="#16C8F2" transform="translate(338,407)" />
<path d="M0 0 C0.66 0.33 1.32 0.66 2 1 C2 4.63 2 8.26 2 12 C1.01 12 0.02 12 -1 12 C-1 9.36 -1 6.72 -1 4 C-1.93972656 4.03480469 -1.93972656 4.03480469 -2.8984375 4.0703125 C-4.12433594 4.09738281 -4.12433594 4.09738281 -5.375 4.125 C-6.18710938 4.14820313 -6.99921875 4.17140625 -7.8359375 4.1953125 C-10 4 -10 4 -12 2 C-8.04 2 -4.08 2 0 2 C0 1.34 0 0.68 0 0 Z " fill="#09A8F1" transform="translate(192,476)" />
<path d="M0 0 C0.99 0.495 0.99 0.495 2 1 C2.29883422 2.95902434 2.58489662 4.92183498 2.7734375 6.89453125 C2.97062722 9.14658922 2.97062722 9.14658922 3.6875 11.875 C4.14402463 16.44024631 3.05965009 20.56873597 2 25 C0 23 0 23 -0.22705078 20.66162109 C-0.21657715 19.70852051 -0.20610352 18.75541992 -0.1953125 17.7734375 C-0.18886719 16.7421875 -0.18242187 15.7109375 -0.17578125 14.6484375 C-0.15902344 13.56820313 -0.14226562 12.48796875 -0.125 11.375 C-0.11597656 10.28703125 -0.10695313 9.1990625 -0.09765625 8.078125 C-0.07403409 5.38519848 -0.04109556 2.69270745 0 0 Z " fill="#0879CB" transform="translate(331,423)" />
<path d="M0 0 C4.29 0 8.58 0 13 0 C6.05284571 5.21036572 -0.6121514 5.30938786 -9 5 C-6.3144406 2.3144406 -3.62378672 1.93950026 0 1 C0 0.67 0 0.34 0 0 Z " fill="#22D2F9" transform="translate(230,385)" />
<path d="M0 0 C0.33 0 0.66 0 1 0 C1.58710486 3.34394505 2.05354605 6.5998258 2 10 C0.125 12.4375 0.125 12.4375 -2 14 C-2.33 14.99 -2.66 15.98 -3 17 C-3.66 17 -4.32 17 -5 17 C-4.54619105 15.10307857 -4.08675008 13.20750405 -3.625 11.3125 C-3.36976563 10.25675781 -3.11453125 9.20101563 -2.8515625 8.11328125 C-2.08094511 5.29593234 -1.14501457 2.68331675 0 0 Z " fill="#16C1EE" transform="translate(320,379)" />
<path d="M0 0 C-1.44424635 3.23861303 -3.25772247 5.61969163 -5.625 8.25 C-6.25664062 8.95640625 -6.88828125 9.6628125 -7.5390625 10.390625 C-8.02117187 10.92171875 -8.50328125 11.4528125 -9 12 C-9.66 11.67 -10.32 11.34 -11 11 C-10.525625 10.46375 -10.05125 9.9275 -9.5625 9.375 C-7.71813924 6.57157164 -7.37543153 4.30379742 -7 1 C-4 0 -4 0 0 0 Z " fill="#039FED" transform="translate(286,495)" />
<path d="M0 0 C0.99 0.33 1.98 0.66 3 1 C0.46976094 9.096765 -5.03252615 14.54081674 -12 19 C-10.60120336 15.86140655 -8.91835015 13.67507511 -6.5625 11.1875 C-3.35586004 7.62679355 -1.59340862 4.49903609 0 0 Z " fill="#0566C3" transform="translate(298,469)" />
<path d="M0 0 C1.65 0 3.3 0 5 0 C4.67 0.66 4.34 1.32 4 2 C3.34 2 2.68 2 2 2 C2.185625 2.78375 2.37125 3.5675 2.5625 4.375 C3.12543691 9.03933441 2.59607604 13.35977729 2 18 C1.34 18 0.68 18 0 18 C0 12.06 0 6.12 0 0 Z " fill="#13D6FE" transform="translate(150,432)" />
<path d="M0 0 C1.60746056 0.42523816 3.21089836 0.86570126 4.8125 1.3125 C6.15248047 1.67794922 6.15248047 1.67794922 7.51953125 2.05078125 C10.05247738 3.0200819 11.2716496 3.95009604 13 6 C11.56260487 6.02712066 10.12506137 6.04645067 8.6875 6.0625 C7.48673828 6.07990234 7.48673828 6.07990234 6.26171875 6.09765625 C4 6 4 6 1 5 C0.67 3.35 0.34 1.7 0 0 Z " fill="#1ED4F7" transform="translate(327,399)" />
<path d="M0 0 C2.31 0 4.62 0 7 0 C7 0.33 7 0.66 7 1 C5.7934375 1.185625 5.7934375 1.185625 4.5625 1.375 C3.716875 1.58125 2.87125 1.7875 2 2 C1.67 2.66 1.34 3.32 1 4 C7.27 4 13.54 4 20 4 C20 4.33 20 4.66 20 5 C11.42 5 2.84 5 -6 5 C-4.68 4.67 -3.36 4.34 -2 4 C-2 3.34 -2 2.68 -2 2 C-1.34 2 -0.68 2 0 2 C0 1.34 0 0.68 0 0 Z " fill="#0BC8F8" transform="translate(224,380)" />
<path d="M0 0 C0.66 0.66 1.32 1.32 2 2 C1.9765625 4.1640625 1.9765625 4.1640625 1.625 6.625 C1.51414062 7.44226563 1.40328125 8.25953125 1.2890625 9.1015625 C1.19367188 9.72804688 1.09828125 10.35453125 1 11 C0.34 11 -0.32 11 -1 11 C-1.66 12.98 -2.32 14.96 -3 17 C-3.33 17 -3.66 17 -4 17 C-4 14.69 -4 12.38 -4 10 C-3.01 9.67 -2.02 9.34 -1 9 C-0.67 6.03 -0.34 3.06 0 0 Z " fill="#0874CA" transform="translate(323,418)" />
<path d="M0 0 C2 2 2 2 2.4375 4.9375 C2 8 2 8 0.0625 9.875 C-4.03115842 11.37879289 -7.68796742 11.25364898 -12 11 C-12 10.67 -12 10.34 -12 10 C-8.12315913 8.80712589 -5.08378077 8 -1 8 C-0.67 5.36 -0.34 2.72 0 0 Z " fill="#086FC9" transform="translate(203,516)" />
<path d="M0 0 C2.51083114 1.25541557 2.87125446 2.50063488 4 5 C2.35 6.32 0.7 7.64 -1 9 C-1 7.35 -1 5.7 -1 4 C-1.78375 4.515625 -2.5675 5.03125 -3.375 5.5625 C-4.24125 6.036875 -5.1075 6.51125 -6 7 C-6.66 6.67 -7.32 6.34 -8 6 C-5.38485683 3.87961365 -2.80362384 1.86908256 0 0 Z " fill="#0288E1" transform="translate(289,485)" />
<path d="M0 0 C-3.74579221 3.67530688 -7.77339676 3.7377075 -12.75 4.1875 C-13.93916016 4.3102832 -13.93916016 4.3102832 -15.15234375 4.43554688 C-17.10043334 4.63505003 -19.05009871 4.81905938 -21 5 C-21 4.34 -21 3.68 -21 3 C-18.30502307 1.65251154 -15.72743343 1.39635104 -12.75 0.9375 C-11.63109375 0.76089844 -10.5121875 0.58429688 -9.359375 0.40234375 C-6.19912415 0.02384859 -3.17864123 -0.07224185 0 0 Z " fill="#28D7FC" transform="translate(230,408)" />
<path d="M0 0 C1.90608098 3.21182149 2.22266247 5.53882603 2.125 9.25 C2.10695312 10.14203125 2.08890625 11.0340625 2.0703125 11.953125 C2.04710937 12.62859375 2.02390625 13.3040625 2 14 C3.32 14.66 4.64 15.32 6 16 C4.02 16 2.04 16 0 16 C-0.90953762 12.89602241 -1.13464149 10.10489778 -1.125 6.875 C-1.12757813 6.00617188 -1.13015625 5.13734375 -1.1328125 4.2421875 C-1 2 -1 2 0 0 Z " fill="#35E6FE" transform="translate(160,408)" />
<path d="M0 0 C2.86724686 0.57344937 3.8614515 0.8614515 6 3 C4.41773035 3.19627391 2.83410729 3.38165538 1.25 3.5625 C0.36828125 3.66691406 -0.5134375 3.77132813 -1.421875 3.87890625 C-3.88432451 3.99456676 -5.66538064 3.73638695 -8 3 C-8 5.31 -8 7.62 -8 10 C-8.33 9.01 -8.66 8.02 -9 7 C-9.66 7 -10.32 7 -11 7 C-10.67 5.35 -10.34 3.7 -10 2 C-6.7 2 -3.4 2 0 2 C0 1.34 0 0.68 0 0 Z " fill="#44E8FB" transform="translate(170,401)" />
<path d="M0 0 C-0.99 1.485 -0.99 1.485 -2 3 C-7 3 -12 3 -17 3 C-17 2.34 -17 1.68 -17 1 C-11.29014022 0.25983299 -5.75813575 -0.10469338 0 0 Z " fill="#003698" transform="translate(248,565)" />
<path d="M0 0 C0.33 0 0.66 0 1 0 C1.05437607 1.58294782 1.09296271 3.16644256 1.125 4.75 C1.14820313 5.63171875 1.17140625 6.5134375 1.1953125 7.421875 C0.99139502 10.1135858 0.36551721 11.69904974 -1 14 C-2.62298792 9.89479526 -3.37979067 7.25435455 -2 3 C-1.34 2.01 -0.68 1.02 0 0 Z " fill="#043C98" transform="translate(344,487)" />
<path d="M0 0 C0.78375 0.04125 1.5675 0.0825 2.375 0.125 C2.375 0.785 2.375 1.445 2.375 2.125 C4.355 2.125 6.335 2.125 8.375 2.125 C8.375 2.785 8.375 3.445 8.375 4.125 C6.77120659 4.17916188 5.16688594 4.21786638 3.5625 4.25 C2.66917969 4.27320313 1.77585938 4.29640625 0.85546875 4.3203125 C-1.625 4.125 -1.625 4.125 -4.625 2.125 C-2.625 0.125 -2.625 0.125 0 0 Z " fill="#0088E4" transform="translate(219.625,559.875)" />
<path d="M0 0 C0 3.99282941 -1.47808076 5.15331592 -4 8.1875 C-4.7425 9.08855469 -5.485 9.98960937 -6.25 10.91796875 C-6.8275 11.60503906 -7.405 12.29210937 -8 13 C-9 10 -9 10 -7.9375 7.625 C-5.59877786 4.45640872 -3.10420976 2.41438537 0 0 Z " fill="#0075D9" transform="translate(319,524)" />
<path d="M0 0 C1.65 0 3.3 0 5 0 C5 0.33 5 0.66 5 1 C8.3 1.33 11.6 1.66 15 2 C15 2.33 15 2.66 15 3 C7.08 3.495 7.08 3.495 -1 4 C-0.67 2.68 -0.34 1.36 0 0 Z " fill="#2FDAF8" transform="translate(200,383)" />
<path d="M0 0 C-0.78375 0.20625 -1.5675 0.4125 -2.375 0.625 C-5.30916286 1.80676612 -5.30916286 1.80676612 -6.3125 5.125 C-6.539375 6.07375 -6.76625 7.0225 -7 8 C-8.32 7.34 -9.64 6.68 -11 6 C-9.9893322 2.96799661 -9.36506843 2.00121175 -7 0 C-3.86650268 -1.04449911 -3.01031744 -0.93423645 0 0 Z " fill="#0069CD" transform="translate(222,555)" />
<path d="M0 0 C0.66 0.33 1.32 0.66 2 1 C0.73452987 2.62918007 -0.53757728 4.25320642 -1.8125 5.875 C-2.52019531 6.77992188 -3.22789062 7.68484375 -3.95703125 8.6171875 C-6 11 -6 11 -9 13 C-8.4352699 9.09170915 -6.57868029 7.10079777 -3.9375 4.25 C-3.20402344 3.45078125 -2.47054688 2.6515625 -1.71484375 1.828125 C-1.14894531 1.22484375 -0.58304687 0.6215625 0 0 Z " fill="#0553B6" transform="translate(312,485)" />
<path d="M0 0 C0.99 0.33 1.98 0.66 3 1 C3 1.66 3 2.32 3 3 C1.06891037 4.03290841 -0.870118 5.05098672 -2.8125 6.0625 C-3.89144531 6.63097656 -4.97039062 7.19945312 -6.08203125 7.78515625 C-9 9 -9 9 -12 8 C-11.21753906 7.59007812 -10.43507813 7.18015625 -9.62890625 6.7578125 C-8.61699219 6.21898437 -7.60507812 5.68015625 -6.5625 5.125 C-5.55316406 4.59132813 -4.54382813 4.05765625 -3.50390625 3.5078125 C-0.89859558 2.24345886 -0.89859558 2.24345886 0 0 Z " fill="#006DCF" transform="translate(272,568)" />
<path d="M0 0 C0.33 1.32 0.66 2.64 1 4 C0.01 4.495 0.01 4.495 -1 5 C-1.40729228 7.32156597 -1.74438677 9.6568787 -2 12 C-3.32 11.34 -4.64 10.68 -6 10 C-5.67 8.68 -5.34 7.36 -5 6 C-4.34 6 -3.68 6 -3 6 C-2.690625 5.38125 -2.38125 4.7625 -2.0625 4.125 C-1.375 2.75 -0.6875 1.375 0 0 Z " fill="#0076D8" transform="translate(296,477)" />
<path d="M0 0 C0.33 0 0.66 0 1 0 C1.33 6.93 1.66 13.86 2 21 C-0.45747464 18.54252536 -0.5801489 17.4201354 -1 14 C-0.91677268 11.55956012 -0.76716726 9.12076631 -0.5625 6.6875 C-0.46066406 5.43324219 -0.35882813 4.17898438 -0.25390625 2.88671875 C-0.17011719 1.93410156 -0.08632812 0.98148437 0 0 Z " fill="#0FB3F4" transform="translate(178,456)" />
<path d="M0 0 C0.66 1.32 1.32 2.64 2 4 C1 5 1 5 -1.94140625 5.09765625 C-3.73384766 5.08025391 -3.73384766 5.08025391 -5.5625 5.0625 C-7.35880859 5.04896484 -7.35880859 5.04896484 -9.19140625 5.03515625 C-10.11824219 5.02355469 -11.04507813 5.01195312 -12 5 C-12 4.34 -12 3.68 -12 3 C-8.04 3 -4.08 3 0 3 C0 2.01 0 1.02 0 0 Z " fill="#26CCF5" transform="translate(121,445)" />
<path d="M0 0 C0.68359375 1.671875 0.68359375 1.671875 1 4 C-0.21484375 6.578125 -0.21484375 6.578125 -1.9375 9.25 C-2.50339844 10.14203125 -3.06929688 11.0340625 -3.65234375 11.953125 C-4.09707031 12.62859375 -4.54179687 13.3040625 -5 14 C-6.24546405 11.50907189 -5.7767578 10.58919267 -5 8 C-4.34 8 -3.68 8 -3 8 C-2.690625 7.05125 -2.38125 6.1025 -2.0625 5.125 C-1 2 -1 2 0 0 Z " fill="#02E9FA" transform="translate(332,507)" />
<path d="M0 0 C0.33 0 0.66 0 1 0 C1 1.98 1 3.96 1 6 C2.32 6 3.64 6 5 6 C5.33 5.34 5.66 4.68 6 4 C6.99 4.99 7.98 5.98 9 7 C8 8 8 8 6.15234375 8.09765625 C4.1015625 8.06510417 2.05078125 8.03255208 0 8 C0 5.36 0 2.72 0 0 Z " fill="#0D8CD7" transform="translate(122,472)" />
<path d="M0 0 C1 3 1 3 0.125 5 C-0.24625 5.66 -0.6175 6.32 -1 7 C-1.33 7.99 -1.66 8.98 -2 10 C-3.32 9.01 -4.64 8.02 -6 7 C-4.02 4.69 -2.04 2.38 0 0 Z " fill="#00C7F7" transform="translate(319,526)" />
<path d="M0 0 C0.66 0 1.32 0 2 0 C2 4 2 8 2 12 C1.34 12 0.68 12 0 12 C0 8.04 0 4.08 0 0 Z " fill="#029FF1" transform="translate(123,466)" />
<path d="M0 0 C0.99 0.33 1.98 0.66 3 1 C3.99 0.67 4.98 0.34 6 0 C5 3 5 3 2.75 4.25 C-0.28236729 5.07700926 -2.01120724 4.85394079 -5 4 C-2.6875 1.9375 -2.6875 1.9375 0 0 Z " fill="#0466C5" transform="translate(247,538)" />
<path d="M0 0 C2.64 0 5.28 0 8 0 C10.09230769 4.43076923 10.09230769 4.43076923 9.625 7.3125 C9.41875 7.869375 9.2125 8.42625 9 9 C8.34 9 7.68 9 7 9 C7 6.36 7 3.72 7 1 C4.69 1 2.38 1 0 1 C0 0.67 0 0.34 0 0 Z " fill="#108CDA" transform="translate(196,507)" />
<path d="M0 0 C0.33 0 0.66 0 1 0 C1 3.3 1 6.6 1 10 C0.34 10 -0.32 10 -1 10 C-1.66 11.32 -2.32 12.64 -3 14 C-2.69024532 12.22868439 -2.37709575 10.45796222 -2.0625 8.6875 C-1.88847656 7.70136719 -1.71445312 6.71523438 -1.53515625 5.69921875 C-1 3 -1 3 0 0 Z " fill="#001E7D" transform="translate(341,485)" />
<path d="M0 0 C1.39195915 4.17587745 -0.17676781 6.13474776 -2 10 C-2.66 10 -3.32 10 -4 10 C-3.43454163 6.04179141 -2.19097652 3.3340947 0 0 Z " fill="#075EBD" transform="translate(320,472)" />
<path d="M0 0 C1.093125 0.226875 2.18625 0.45375 3.3125 0.6875 C1.3125 2.6875 1.3125 2.6875 -0.6328125 2.8828125 C-2.65104167 2.81770833 -4.66927083 2.75260417 -6.6875 2.6875 C-4.58035839 -0.41123767 -3.86755884 -0.32775922 0 0 Z " fill="#0442A4" transform="translate(221.6875,551.3125)" />
<path d="M0 0 C-4.455 2.97 -4.455 2.97 -9 6 C-8 2 -8 2 -6.1875 0.1875 C-4 -1 -4 -1 0 0 Z " fill="#0065C9" transform="translate(298,551)" />
<path d="M0 0 C0.33 0 0.66 0 1 0 C1.41176754 3.60296594 1.1535853 4.78402067 -1 7.8125 C-1.66 8.534375 -2.32 9.25625 -3 10 C-3.66 9.67 -4.32 9.34 -5 9 C-4.3566152 7.686298 -3.71021785 6.37407102 -3.0625 5.0625 C-2.70285156 4.33160156 -2.34320313 3.60070312 -1.97265625 2.84765625 C-1 1 -1 1 0 0 Z " fill="#01E4FC" transform="translate(322,523)" />
<path d="M0 0 C1.6254308 0.14095064 3.25034051 0.28792087 4.875 0.4375 C5.77992188 0.51871094 6.68484375 0.59992188 7.6171875 0.68359375 C10 1 10 1 12 2 C11.67 2.66 11.34 3.32 11 4 C7.37 3.34 3.74 2.68 0 2 C0 1.34 0 0.68 0 0 Z " fill="#0466C3" transform="translate(174,507)" />
<path d="M0 0 C1.39195915 4.17587745 -0.17676781 6.13474776 -2 10 C-2.33 10 -2.66 10 -3 10 C-2.88637738 8.5199159 -2.75877092 7.04089926 -2.625 5.5625 C-2.55539062 4.73878906 -2.48578125 3.91507812 -2.4140625 3.06640625 C-2.27742188 2.38449219 -2.14078125 1.70257813 -2 1 C-1.34 0.67 -0.68 0.34 0 0 Z " fill="#01DFFB" transform="translate(337,495)" />
<path d="M0 0 C0.99 0 1.98 0 3 0 C2.67 3.63 2.34 7.26 2 11 C1.67 11 1.34 11 1 11 C1 9.02 1 7.04 1 5 C0.34 5 -0.32 5 -1 5 C-0.67 3.35 -0.34 1.7 0 0 Z " fill="#0491E3" transform="translate(341,443)" />
<path d="M0 0 C3.875 4.75 3.875 4.75 5 7 C4.34 7 3.68 7 3 7 C2.67 7.66 2.34 8.32 2 9 C0.4375 6.1875 0.4375 6.1875 -1 3 C-0.67 2.01 -0.34 1.02 0 0 Z " fill="#1B9CDD" transform="translate(129,517)" />
<path d="M0 0 C0.33 0 0.66 0 1 0 C1.91397824 5.68697571 1.91397824 10.31302429 1 16 C0.67 16 0.34 16 0 16 C-0.71033431 10.47032059 -1.30267176 5.50016964 0 0 Z " fill="#00A8F2" transform="translate(341,448)" />
<path d="M0 0 C0.99 0 1.98 0 3 0 C2.34 3.63 1.68 7.26 1 11 C0.34 10.34 -0.32 9.68 -1 9 C-0.9765625 6.8359375 -0.9765625 6.8359375 -0.625 4.375 C-0.51414062 3.55773437 -0.40328125 2.74046875 -0.2890625 1.8984375 C-0.19367188 1.27195312 -0.09828125 0.64546875 0 0 Z " fill="#1996DB" transform="translate(321,416)" />
<path d="M0 0 C0.33 0.99 0.66 1.98 1 3 C-0.66666667 4.66666667 -2.33333333 6.33333333 -4 8 C-4.66 7.67 -5.32 7.34 -6 7 C-4.02 4.69 -2.04 2.38 0 0 Z " fill="#00A0EE" transform="translate(291,555)" />
<path d="M0 0 C0.66 0 1.32 0 2 0 C1.45773019 3.79588866 -0.20127563 5.47211993 -3 8 C-3.66 7.67 -4.32 7.34 -5 7 C-4.54625 6.5875 -4.0925 6.175 -3.625 5.75 C-1.94049626 3.93591905 -1.00734029 2.24714373 0 0 Z " fill="#00D9FD" transform="translate(302,546)" />
<path d="M0 0 C0.33 0.99 0.66 1.98 1 3 C-0.96466413 4.06775224 -2.96855359 5.06553465 -5 6 C-5.66 5.67 -6.32 5.34 -7 5 C-2.25 1.125 -2.25 1.125 0 0 Z " fill="#0758BB" transform="translate(255,534)" />
<path d="M0 0 C3.79588866 0.54226981 5.47211993 2.20127563 8 5 C5 5 5 5 2.3125 2.5 C1.549375 1.675 0.78625 0.85 0 0 Z " fill="#0B57B3" transform="translate(135,515)" />
<path d="M0 0 C1.65 0 3.3 0 5 0 C4.67 0.66 4.34 1.32 4 2 C3.34 2 2.68 2 2 2 C1.67 3.98 1.34 5.96 1 8 C0.67 8 0.34 8 0 8 C0 5.36 0 2.72 0 0 Z " fill="#1CDFFD" transform="translate(150,432)" />
<path d="M0 0 C2.86724686 0.57344937 3.8614515 0.8614515 6 3 C5.67 3.99 5.34 4.98 5 6 C3.2925002 4.71937515 1.62626404 3.38232443 0 2 C0 1.34 0 0.68 0 0 Z " fill="#062E80" transform="translate(174,569)" />
<path d="M0 0 C-1.04874998 2.62187494 -1.64931313 3.79371361 -4.125 5.25 C-4.74375 5.4975 -5.3625 5.745 -6 6 C-6 5.01 -6 4.02 -6 3 C-2.66666667 0 -2.66666667 0 0 0 Z " fill="#022074" transform="translate(314,553)" />
<path d="M0 0 C0.66 0.33 1.32 0.66 2 1 C1.0479279 2.00596297 0.08812654 3.00461563 -0.875 4 C-1.40867187 4.556875 -1.94234375 5.11375 -2.4921875 5.6875 C-4 7 -4 7 -6 7 C-4.60667426 3.63279613 -3.0210714 2.0140476 0 0 Z " fill="#005FC3" transform="translate(292,512)" />
<path d="M0 0 C0 0.99 0 1.98 0 3 C-3 5.1875 -3 5.1875 -6 7 C-6 6.01 -6 5.02 -6 4 C-3 1.8125 -3 1.8125 0 0 Z " fill="#0447AF" transform="translate(293,507)" />
<path d="M0 0 C0.66 0 1.32 0 2 0 C2 1.65 2 3.3 2 5 C2.66 5.33 3.32 5.66 4 6 C3.01 6.66 2.02 7.32 1 8 C0.01 7.34 -0.98 6.68 -2 6 C-1.01 6 -0.02 6 1 6 C0.67 4.02 0.34 2.04 0 0 Z " fill="#39E6FE" transform="translate(178,424)" />
<path d="" fill="#093C89" transform="translate(0,0)" />
<path d="M0 0 C2 1 2 1 2 1 Z " fill="#53E7F8" transform="translate(162,401)" />
<path d="" fill="#5A5B5A" transform="translate(0,0)" />
<path d="" fill="#114B95" transform="translate(0,0)" />
<path d="" fill="#0B3C87" transform="translate(0,0)" />
<path d="" fill="#08347C" transform="translate(0,0)" />
<path d="" fill="#0B3882" transform="translate(0,0)" />
<path d="" fill="#0B3780" transform="translate(0,0)" />
<path d="" fill="#093B84" transform="translate(0,0)" />
<path d="" fill="#0A3E88" transform="translate(0,0)" />
<path d="" fill="#0C3C81" transform="translate(0,0)" />
<path d="" fill="#0C377B" transform="translate(0,0)" />
<path d="" fill="#107FC8" transform="translate(0,0)" />
<path d="" fill="#137AC3" transform="translate(0,0)" />
<path d="" fill="#0D3883" transform="translate(0,0)" />
<path d="" fill="#0D3B84" transform="translate(0,0)" />
<path d="" fill="#083880" transform="translate(0,0)" />
<path d="" fill="#0E3882" transform="translate(0,0)" />
<path d="" fill="#0A3A83" transform="translate(0,0)" />
<path d="" fill="#107FC8" transform="translate(0,0)" />
<path d="" fill="#0E7BC3" transform="translate(0,0)" />
<path d="" fill="#0C6BB7" transform="translate(0,0)" />
<path d="" fill="#10ADF0" transform="translate(0,0)" />
<path d="" fill="#1282C9" transform="translate(0,0)" />
<path d="" fill="#0A88D0" transform="translate(0,0)" />
<path d="" fill="#10B5F1" transform="translate(0,0)" />
<path d="" fill="#0B9EE3" transform="translate(0,0)" />
<path d="" fill="#11A9ED" transform="translate(0,0)" />
<path d="" fill="#0D89D5" transform="translate(0,0)" />
<path d="" fill="#11BBF5" transform="translate(0,0)" />
<path d="" fill="#1B9CDF" transform="translate(0,0)" />
<path d="" fill="#1B97DD" transform="translate(0,0)" />
<path d="" fill="#0A96E0" transform="translate(0,0)" />
<path d="" fill="#209ADC" transform="translate(0,0)" />
<path d="" fill="#04388B" transform="translate(0,0)" />
<path d="" fill="#089BE3" transform="translate(0,0)" />
<path d="" fill="#2191CE" transform="translate(0,0)" />
<path d="" fill="#083B8B" transform="translate(0,0)" />
<path d="" fill="#0B56A5" transform="translate(0,0)" />
<path d="" fill="#083A89" transform="translate(0,0)" />
<path d="" fill="#083B89" transform="translate(0,0)" />
<path d="" fill="#0795E0" transform="translate(0,0)" />
<path d="" fill="#073D8C" transform="translate(0,0)" />
<path d="" fill="#073889" transform="translate(0,0)" />
<path d="" fill="#0B3B86" transform="translate(0,0)" />
<path d="" fill="#054598" transform="translate(0,0)" />
<path d="" fill="#043B86" transform="translate(0,0)" />
<path d="" fill="#08A9ED" transform="translate(0,0)" />
<path d="" fill="#093788" transform="translate(0,0)" />
<path d="" fill="#18A3E1" transform="translate(0,0)" />
<path d="" fill="#1086D6" transform="translate(0,0)" />
<path d="" fill="#07B1F0" transform="translate(0,0)" />
<path d="" fill="#023C8F" transform="translate(0,0)" />
<path d="" fill="#083D8E" transform="translate(0,0)" />
<path d="" fill="#043C8E" transform="translate(0,0)" />
<path d="" fill="#033990" transform="translate(0,0)" />
<path d="" fill="#0BB5F7" transform="translate(0,0)" />
<path d="" fill="#083C8B" transform="translate(0,0)" />
<path d="" fill="#0A3E88" transform="translate(0,0)" />
<path d="" fill="#0AC1F6" transform="translate(0,0)" />
<path d="" fill="#07BEF7" transform="translate(0,0)" />
<path d="" fill="#083D89" transform="translate(0,0)" />
<path d="" fill="#07A9EE" transform="translate(0,0)" />
<path d="" fill="#0AC3FB" transform="translate(0,0)" />
<path d="" fill="#0BC3F8" transform="translate(0,0)" />
<path d="" fill="#134185" transform="translate(0,0)" />
<path d="" fill="#074094" transform="translate(0,0)" />
<path d="" fill="#27D4FB" transform="translate(0,0)" />
<path d="" fill="#46DAF2" transform="translate(0,0)" />
<path d="" fill="#47D8F0" transform="translate(0,0)" />
<path d="" fill="#43E0F8" transform="translate(0,0)" />
<path d="" fill="#1D9BD5" transform="translate(0,0)" />
<path d="" fill="#36A9D8" transform="translate(0,0)" />
<path d="" fill="#2BA5DA" transform="translate(0,0)" />
<path d="" fill="#36B9E5" transform="translate(0,0)" />
<path d="" fill="#2DABDE" transform="translate(0,0)" />
<path d="" fill="#43B7DD" transform="translate(0,0)" />
<path d="" fill="#52E1F6" transform="translate(0,0)" />
<path d="" fill="#4FE6F9" transform="translate(0,0)" />
<path d="" fill="#45DFF9" transform="translate(0,0)" />
<path d="" fill="#3CDDF7" transform="translate(0,0)" />
<path d="" fill="#41E0FB" transform="translate(0,0)" />
<path d="" fill="#44E2FB" transform="translate(0,0)" />
<path d="" fill="#36D3F6" transform="translate(0,0)" />
<path d="" fill="#25BDEA" transform="translate(0,0)" />
<text x="360" y="540" font-family="Arial, sans-serif" font-size="100" font-weight="bold"><tspan fill="#000000">Med</tspan><tspan fill="#0891b2">Lens</tspan></text></svg>